<svg width="335" height="47" viewBox="0 0 335 47" fill="none" xmlns="http://www.w3.org/2000/svg">
<path d="M30.36 27H30.86V26.5H30.36V27ZM25.2 27L24.7054 26.927L24.6208 27.5H25.2V27ZM26.28 19.68V19.18H25.8484L25.7854 19.607L26.28 19.68ZM32.16 19.68V20.18H32.66V19.68H32.16ZM32.16 14.04H32.66V13.54H32.16V14.04ZM27 14.04L26.5046 13.9727L26.4274 14.54H27V14.04ZM28.68 1.68L29.1754 1.74734L29.2526 1.18H28.68V1.68ZM22.92 1.68V1.18H22.4855L22.4249 1.6103L22.92 1.68ZM21.18 14.04V14.54H21.6145L21.6751 14.1097L21.18 14.04ZM15.24 14.04L14.7446 13.9727L14.6674 14.54H15.24V14.04ZM16.92 1.68L17.4154 1.74734L17.4926 1.18H16.92V1.68ZM11.16 1.68V1.18H10.7255L10.6649 1.6103L11.16 1.68ZM9.42 14.04V14.54H9.85454L9.91512 14.1097L9.42 14.04ZM3.06 14.04V13.54H2.56V14.04H3.06ZM3.06 19.68H2.56V20.18H3.06V19.68ZM8.7 19.68L9.19465 19.753L9.27918 19.18H8.7V19.68ZM7.62 27V27.5H8.05164L8.11465 27.073L7.62 27ZM1.2 27V26.5H0.7V27H1.2ZM1.2 32.64H0.7V33.14H1.2V32.64ZM6.84 32.64L7.33544 32.7073L7.41256 32.14H6.84V32.64ZM5.16 45L4.66456 44.9327L4.58744 45.5H5.16V45ZM10.92 45V45.5H11.3545L11.4151 45.0697L10.92 45ZM12.66 32.64V32.14H12.2255L12.1649 32.5703L12.66 32.64ZM18.6 32.64L19.0954 32.7073L19.1726 32.14H18.6V32.64ZM16.92 45L16.4246 44.9327L16.3474 45.5H16.92V45ZM22.68 45V45.5H23.1145L23.1751 45.0697L22.68 45ZM24.42 32.64V32.14H23.9855L23.9249 32.5703L24.42 32.64ZM30.36 32.64V33.14H30.86V32.64H30.36ZM20.46 19.68L20.9546 19.753L21.0392 19.18H20.46V19.68ZM19.38 27V27.5H19.8116L19.8746 27.073L19.38 27ZM13.44 27L12.9454 26.927L12.8608 27.5H13.44V27ZM14.52 19.68V19.18H14.0884L14.0254 19.607L14.52 19.68ZM30.36 26.5H25.2V27.5H30.36V26.5ZM25.6946 27.073L26.7746 19.753L25.7854 19.607L24.7054 26.927L25.6946 27.073ZM26.28 20.18H32.16V19.18H26.28V20.18ZM32.66 19.68V14.04H31.66V19.68H32.66ZM32.16 13.54H27V14.54H32.16V13.54ZM27.4954 14.1073L29.1754 1.74734L28.1846 1.61265L26.5046 13.9727L27.4954 14.1073ZM28.68 1.18H22.92V2.18H28.68V1.18ZM22.4249 1.6103L20.6849 13.9703L21.6751 14.1097L23.4151 1.7497L22.4249 1.6103ZM21.18 13.54H15.24V14.54H21.18V13.54ZM15.7354 14.1073L17.4154 1.74734L16.4246 1.61265L14.7446 13.9727L15.7354 14.1073ZM16.92 1.18H11.16V2.18H16.92V1.18ZM10.6649 1.6103L8.92488 13.9703L9.91512 14.1097L11.6551 1.7497L10.6649 1.6103ZM9.42 13.54H3.06V14.54H9.42V13.54ZM2.56 14.04V19.68H3.56V14.04H2.56ZM3.06 20.18H8.7V19.18H3.06V20.18ZM8.20536 19.607L7.12536 26.927L8.11465 27.073L9.19465 19.753L8.20536 19.607ZM7.62 26.5H1.2V27.5H7.62V26.5ZM0.7 27V32.64H1.7V27H0.7ZM1.2 33.14H6.84V32.14H1.2V33.14ZM6.34456 32.5727L4.66456 44.9327L5.65544 45.0673L7.33544 32.7073L6.34456 32.5727ZM5.16 45.5H10.92V44.5H5.16V45.5ZM11.4151 45.0697L13.1551 32.7097L12.1649 32.5703L10.4249 44.9303L11.4151 45.0697ZM12.66 33.14H18.6V32.14H12.66V33.14ZM18.1046 32.5727L16.4246 44.9327L17.4154 45.0673L19.0954 32.7073L18.1046 32.5727ZM16.92 45.5H22.68V44.5H16.92V45.5ZM23.1751 45.0697L24.9151 32.7097L23.9249 32.5703L22.1849 44.9303L23.1751 45.0697ZM24.42 33.14H30.36V32.14H24.42V33.14ZM30.86 32.64V27H29.86V32.64H30.86ZM19.9654 19.607L18.8854 26.927L19.8746 27.073L20.9546 19.753L19.9654 19.607ZM19.38 26.5H13.44V27.5H19.38V26.5ZM13.9346 27.073L15.0146 19.753L14.0254 19.607L12.9454 26.927L13.9346 27.073ZM14.52 20.18H20.46V19.18H14.52V20.18ZM50.0198 11.04V10.54H49.6229L49.5329 10.9266L50.0198 11.04ZM50.1398 11.04L50.6272 10.9282L50.5381 10.54H50.1398V11.04ZM54.1598 28.56V29.06H54.7876L54.6472 28.4482L54.1598 28.56ZM45.9398 28.56L45.4529 28.4466L45.31 29.06H45.9398V28.56ZM42.0998 45V45.5H42.4878L42.5842 45.1243L42.0998 45ZM44.4398 35.88V35.38H44.0519L43.9555 35.7557L44.4398 35.88ZM55.8998 35.88L56.3871 35.7678L56.2978 35.38H55.8998V35.88ZM57.9998 45L57.5126 45.1122L57.6019 45.5H57.9998V45ZM65.9198 45V45.5H66.5547L66.4059 44.8829L65.9198 45ZM55.4798 1.68L55.9659 1.56285L55.8737 1.18H55.4798V1.68ZM44.8598 1.68V1.18H44.4687L44.3745 1.55968L44.8598 1.68ZM34.1198 45L33.6345 44.8797L33.4807 45.5H34.1198V45ZM50.0198 11.54H50.1398V10.54H50.0198V11.54ZM49.6525 11.1518L53.6725 28.6718L54.6472 28.4482L50.6272 10.9282L49.6525 11.1518ZM54.1598 28.06H45.9398V29.06H54.1598V28.06ZM46.4268 28.6734L50.5068 11.1534L49.5329 10.9266L45.4529 28.4466L46.4268 28.6734ZM42.5842 45.1243L44.9242 36.0043L43.9555 35.7557L41.6155 44.8757L42.5842 45.1243ZM44.4398 36.38H55.8998V35.38H44.4398V36.38ZM55.4126 35.9922L57.5126 45.1122L58.4871 44.8878L56.3871 35.7678L55.4126 35.9922ZM57.9998 45.5H65.9198V44.5H57.9998V45.5ZM66.4059 44.8829L55.9659 1.56285L54.9938 1.79714L65.4338 45.1171L66.4059 44.8829ZM55.4798 1.18H44.8598V2.18H55.4798V1.18ZM44.3745 1.55968L33.6345 44.8797L34.6052 45.1203L45.3452 1.80031L44.3745 1.55968ZM34.1198 45.5H42.0998V44.5H34.1198V45.5ZM70.3997 45H69.8997V45.5H70.3997V45ZM97.0397 30L97.5394 30.0165L97.5397 30.0082V30H97.0397ZM97.0397 16.68H97.5397V16.6718L97.5394 16.6635L97.0397 16.68ZM70.3997 1.68V1.18H69.8997V1.68H70.3997ZM78.6797 9V8.5H78.1797V9H78.6797ZM78.6797 37.68H78.1797V38.18H78.6797V37.68ZM70.3997 45.5H81.9197V44.5H70.3997V45.5ZM81.9197 45.5C86.7208 45.5 90.5598 44.4681 93.2412 41.9602C95.9257 39.4494 97.3571 35.5469 97.5394 30.0165L96.54 29.9835C96.3623 35.3731 94.9737 38.9706 92.5581 41.2298C90.1396 43.4919 86.5986 44.5 81.9197 44.5V45.5ZM97.5397 30V16.68H96.5397V30H97.5397ZM97.5394 16.6635C97.3571 11.1331 95.9257 7.2306 93.2412 4.71983C90.5598 2.21186 86.7208 1.18 81.9197 1.18V2.18C86.5986 2.18 90.1396 3.18813 92.5581 5.45017C94.9737 7.7094 96.3623 11.3069 96.54 16.6965L97.5394 16.6635ZM81.9197 1.18H70.3997V2.18H81.9197V1.18ZM69.8997 1.68V45H70.8997V1.68H69.8997ZM78.6797 9.5H81.5597V8.5H78.6797V9.5ZM81.5597 9.5C84.0653 9.5 85.6886 10.1108 86.7096 11.3439C87.7506 12.6012 88.2597 14.6133 88.2597 17.64H89.2597C89.2597 14.5467 88.7488 12.2388 87.4798 10.7061C86.1908 9.14922 84.214 8.5 81.5597 8.5V9.5ZM88.2597 17.64V29.04H89.2597V17.64H88.2597ZM88.2597 29.04C88.2597 32.2278 87.6077 34.2376 86.5001 35.4533C85.4031 36.6572 83.7682 37.18 81.5597 37.18V38.18C83.9111 38.18 85.8762 37.6228 87.2393 36.1267C88.5917 34.6424 89.2597 32.3322 89.2597 29.04H88.2597ZM81.5597 37.18H78.6797V38.18H81.5597V37.18ZM79.1797 37.68V9H78.1797V37.68H79.1797ZM102.52 31.08C102.52 36.5043 103.953 40.287 106.5 42.7074C109.042 45.1233 112.608 46.1 116.7 46.1V45.1C112.751 45.1 109.477 44.1567 107.189 41.9826C104.906 39.813 103.52 36.3357 103.52 31.08H102.52ZM116.7 46.1C120.791 46.1 124.357 45.1233 126.899 42.7074C129.446 40.287 130.88 36.5043 130.88 31.08H129.88C129.88 36.3357 128.493 39.813 126.21 41.9826C123.922 44.1567 120.648 45.1 116.7 45.1V46.1ZM130.88 31.08V15.6H129.88V31.08H130.88ZM130.88 15.6C130.88 10.1757 129.446 6.39299 126.899 3.97255C124.357 1.55667 120.791 0.579997 116.7 0.579997V1.58C120.648 1.58 123.922 2.52333 126.21 4.69744C128.493 6.86701 129.88 10.3443 129.88 15.6H130.88ZM116.7 0.579997C112.608 0.579997 109.042 1.55667 106.5 3.97255C103.953 6.39299 102.52 10.1757 102.52 15.6H103.52C103.52 10.3443 104.906 6.86701 107.189 4.69744C109.477 2.52333 112.751 1.58 116.7 1.58V0.579997ZM102.52 15.6V31.08H103.52V15.6H102.52ZM111.8 14.52C111.8 12.1786 112.314 10.8091 113.114 10.015C113.914 9.22186 115.102 8.9 116.7 8.9V7.9C114.997 7.9 113.485 8.23814 112.41 9.30503C111.335 10.3709 110.8 12.0614 110.8 14.52H111.8ZM116.7 8.9C118.297 8.9 119.485 9.22186 120.285 10.015C121.085 10.8091 121.6 12.1786 121.6 14.52H122.6C122.6 12.0614 122.064 10.3709 120.989 9.30503C119.914 8.23814 118.402 7.9 116.7 7.9V8.9ZM121.6 14.52V32.16H122.6V14.52H121.6ZM121.6 32.16C121.6 34.5014 121.085 35.8709 120.285 36.665C119.485 37.4581 118.297 37.78 116.7 37.78V38.78C118.402 38.78 119.914 38.4419 120.989 37.375C122.064 36.3091 122.6 34.6186 122.6 32.16H121.6ZM116.7 37.78C115.102 37.78 113.914 37.4581 113.114 36.665C112.314 35.8709 111.8 34.5014 111.8 32.16H110.8C110.8 34.6186 111.335 36.3091 112.41 37.375C113.485 38.4419 114.997 38.78 116.7 38.78V37.78ZM111.8 32.16V14.52H110.8V32.16H111.8ZM165.399 45V45.5H166.153L165.86 44.8055L165.399 45ZM157.239 25.68L157.063 25.2121L156.576 25.3954L156.779 25.8745L157.239 25.68ZM137.079 1.68V1.18H136.579V1.68H137.079ZM137.079 45H136.579V45.5H137.079V45ZM145.359 45V45.5H145.859V45H145.359ZM145.359 27.36V26.86H144.859V27.36H145.359ZM149.319 27.36L149.782 27.1711L149.655 26.86H149.319V27.36ZM156.519 45L156.056 45.1889L156.183 45.5H156.519V45ZM145.359 8.52V8.02H144.859V8.52H145.359ZM145.359 20.52H144.859V21.02H145.359V20.52ZM165.86 44.8055L157.7 25.4855L156.779 25.8745L164.939 45.1945L165.86 44.8055ZM157.416 26.1479C159.828 25.2394 161.558 23.7548 162.677 21.7789C163.79 19.813 164.279 17.395 164.279 14.64H163.279C163.279 17.285 162.809 19.517 161.807 21.2861C160.811 23.0452 159.271 24.3806 157.063 25.2121L157.416 26.1479ZM164.279 14.64C164.279 10.4629 163.063 7.07133 160.502 4.73085C157.947 2.39726 154.132 1.18 149.079 1.18V2.18C153.986 2.18 157.521 3.36274 159.827 5.46914C162.125 7.56866 163.279 10.6571 163.279 14.64H164.279ZM149.079 1.18H137.079V2.18H149.079V1.18ZM136.579 1.68V45H137.579V1.68H136.579ZM137.079 45.5H145.359V44.5H137.079V45.5ZM145.859 45V27.36H144.859V45H145.859ZM145.359 27.86H149.319V26.86H145.359V27.86ZM148.856 27.5489L156.056 45.1889L156.982 44.8111L149.782 27.1711L148.856 27.5489ZM156.519 45.5H165.399V44.5H156.519V45.5ZM145.359 9.02H149.619V8.02H145.359V9.02ZM149.619 9.02C151.374 9.02 152.699 9.4516 153.585 10.3052C154.468 11.1553 154.999 12.5044 154.999 14.52H155.999C155.999 12.3356 155.421 10.6847 154.279 9.58484C153.14 8.48839 151.524 8.02 149.619 8.02V9.02ZM154.999 14.52C154.999 16.5356 154.468 17.8847 153.585 18.7348C152.699 19.5884 151.374 20.02 149.619 20.02V21.02C151.524 21.02 153.14 20.5516 154.279 19.4552C155.421 18.3553 155.999 16.7044 155.999 14.52H154.999ZM149.619 20.02H145.359V21.02H149.619V20.02ZM145.859 20.52V8.52H144.859V20.52H145.859ZM169.199 31.08C169.199 36.5043 170.633 40.287 173.18 42.7074C175.722 45.1233 179.288 46.1 183.379 46.1V45.1C179.431 45.1 176.156 44.1567 173.869 41.9826C171.586 39.813 170.199 36.3357 170.199 31.08H169.199ZM183.379 46.1C187.471 46.1 191.036 45.1233 193.579 42.7074C196.126 40.287 197.559 36.5043 197.559 31.08H196.559C196.559 36.3357 195.173 39.813 192.89 41.9826C190.602 44.1567 187.328 45.1 183.379 45.1V46.1ZM197.559 31.08V15.6H196.559V31.08H197.559ZM197.559 15.6C197.559 10.1757 196.126 6.39299 193.579 3.97255C191.036 1.55667 187.471 0.579997 183.379 0.579997V1.58C187.328 1.58 190.602 2.52333 192.89 4.69744C195.173 6.86701 196.559 10.3443 196.559 15.6H197.559ZM183.379 0.579997C179.288 0.579997 175.722 1.55667 173.18 3.97255C170.633 6.39299 169.199 10.1757 169.199 15.6H170.199C170.199 10.3443 171.586 6.86701 173.869 4.69744C176.156 2.52333 179.431 1.58 183.379 1.58V0.579997ZM169.199 15.6V31.08H170.199V15.6H169.199ZM178.479 14.52C178.479 12.1786 178.993 10.8091 179.794 10.015C180.593 9.22186 181.782 8.9 183.379 8.9V7.9C181.677 7.9 180.165 8.23814 179.09 9.30503C178.015 10.3709 177.479 12.0614 177.479 14.52H178.479ZM183.379 8.9C184.977 8.9 186.165 9.22186 186.965 10.015C187.765 10.8091 188.279 12.1786 188.279 14.52H189.279C189.279 12.0614 188.743 10.3709 187.669 9.30503C186.593 8.23814 185.082 7.9 183.379 7.9V8.9ZM188.279 14.52V32.16H189.279V14.52H188.279ZM188.279 32.16C188.279 34.5014 187.765 35.8709 186.965 36.665C186.165 37.4581 184.977 37.78 183.379 37.78V38.78C185.082 38.78 186.593 38.4419 187.669 37.375C188.743 36.3091 189.279 34.6186 189.279 32.16H188.279ZM183.379 37.78C181.782 37.78 180.593 37.4581 179.794 36.665C178.993 35.8709 178.479 34.5014 178.479 32.16H177.479C177.479 34.6186 178.015 36.3091 179.09 37.375C180.165 38.4419 181.677 38.78 183.379 38.78V37.78ZM178.479 32.16V14.52H177.479V32.16H178.479ZM212.039 45V45.5H212.539V45H212.039ZM212.039 26.28V25.78H211.539V26.28H212.039ZM222.479 26.28V26.78H222.979V26.28H222.479ZM222.479 18.96H222.979V18.46H222.479V18.96ZM212.039 18.96H211.539V19.46H212.039V18.96ZM212.039 9V8.5H211.539V9H212.039ZM225.359 9V9.5H225.859V9H225.359ZM225.359 1.68H225.859V1.18H225.359V1.68ZM203.759 1.68V1.18H203.259V1.68H203.759ZM203.759 45H203.259V45.5H203.759V45ZM212.539 45V26.28H211.539V45H212.539ZM212.039 26.78H222.479V25.78H212.039V26.78ZM222.979 26.28V18.96H221.979V26.28H222.979ZM222.479 18.46H212.039V19.46H222.479V18.46ZM212.539 18.96V9H211.539V18.96H212.539ZM212.039 9.5H225.359V8.5H212.039V9.5ZM225.859 9V1.68H224.859V9H225.859ZM225.359 1.18H203.759V2.18H225.359V1.18ZM203.259 1.68V45H204.259V1.68H203.259ZM203.759 45.5H212.039V44.5H203.759V45.5ZM241.153 11.04V10.54H240.756L240.666 10.9266L241.153 11.04ZM241.273 11.04L241.76 10.9282L241.671 10.54H241.273V11.04ZM245.293 28.56V29.06H245.92L245.78 28.4482L245.293 28.56ZM237.073 28.56L236.586 28.4466L236.443 29.06H237.073V28.56ZM233.233 45V45.5H233.621L233.717 45.1243L233.233 45ZM235.573 35.88V35.38H235.185L235.088 35.7557L235.573 35.88ZM247.033 35.88L247.52 35.7678L247.431 35.38H247.033V35.88ZM249.133 45L248.645 45.1122L248.735 45.5H249.133V45ZM257.053 45V45.5H257.687L257.539 44.8829L257.053 45ZM246.613 1.68L247.099 1.56285L247.006 1.18H246.613V1.68ZM235.993 1.68V1.18H235.601L235.507 1.55968L235.993 1.68ZM225.253 45L224.767 44.8797L224.614 45.5H225.253V45ZM241.153 11.54H241.273V10.54H241.153V11.54ZM240.785 11.1518L244.805 28.6718L245.78 28.4482L241.76 10.9282L240.785 11.1518ZM245.293 28.06H237.073V29.06H245.293V28.06ZM237.56 28.6734L241.64 11.1534L240.666 10.9266L236.586 28.4466L237.56 28.6734ZM233.717 45.1243L236.057 36.0043L235.088 35.7557L232.748 44.8757L233.717 45.1243ZM235.573 36.38H247.033V35.38H235.573V36.38ZM246.545 35.9922L248.645 45.1122L249.62 44.8878L247.52 35.7678L246.545 35.9922ZM249.133 45.5H257.053V44.5H249.133V45.5ZM257.539 44.8829L247.099 1.56285L246.127 1.79714L256.567 45.1171L257.539 44.8829ZM246.613 1.18H235.993V2.18H246.613V1.18ZM235.507 1.55968L224.767 44.8797L225.738 45.1203L236.478 1.80031L235.507 1.55968ZM225.253 45.5H233.233V44.5H225.253V45.5ZM289.853 45V45.5H290.606L290.313 44.8055L289.853 45ZM281.693 25.68L281.516 25.2121L281.03 25.3954L281.232 25.8745L281.693 25.68ZM261.533 1.68V1.18H261.033V1.68H261.533ZM261.533 45H261.033V45.5H261.533V45ZM269.813 45V45.5H270.313V45H269.813ZM269.813 27.36V26.86H269.313V27.36H269.813ZM273.773 27.36L274.235 27.1711L274.108 26.86H273.773V27.36ZM280.973 45L280.51 45.1889L280.637 45.5H280.973V45ZM269.813 8.52V8.02H269.313V8.52H269.813ZM269.813 20.52H269.313V21.02H269.813V20.52ZM290.313 44.8055L282.153 25.4855L281.232 25.8745L289.392 45.1945L290.313 44.8055ZM281.869 26.1479C284.281 25.2394 286.011 23.7548 287.13 21.7789C288.243 19.813 288.733 17.395 288.733 14.64H287.733C287.733 17.285 287.262 19.517 286.26 21.2861C285.264 23.0452 283.724 24.3806 281.516 25.2121L281.869 26.1479ZM288.733 14.64C288.733 10.4629 287.517 7.07133 284.955 4.73085C282.4 2.39726 278.585 1.18 273.533 1.18V2.18C278.44 2.18 281.975 3.36274 284.28 5.46914C286.578 7.56866 287.733 10.6571 287.733 14.64H288.733ZM273.533 1.18H261.533V2.18H273.533V1.18ZM261.033 1.68V45H262.033V1.68H261.033ZM261.533 45.5H269.813V44.5H261.533V45.5ZM270.313 45V27.36H269.313V45H270.313ZM269.813 27.86H273.773V26.86H269.813V27.86ZM273.31 27.5489L280.51 45.1889L281.435 44.8111L274.235 27.1711L273.31 27.5489ZM280.973 45.5H289.853V44.5H280.973V45.5ZM269.813 9.02H274.073V8.02H269.813V9.02ZM274.073 9.02C275.828 9.02 277.152 9.4516 278.038 10.3052C278.921 11.1553 279.453 12.5044 279.453 14.52H280.453C280.453 12.3356 279.874 10.6847 278.732 9.58484C277.593 8.48839 275.977 8.02 274.073 8.02V9.02ZM279.453 14.52C279.453 16.5356 278.921 17.8847 278.038 18.7348C277.152 19.5884 275.828 20.02 274.073 20.02V21.02C275.977 21.02 277.593 20.5516 278.732 19.4552C279.874 18.3553 280.453 16.7044 280.453 14.52H279.453ZM274.073 20.02H269.813V21.02H274.073V20.02ZM270.313 20.52V8.52H269.313V20.52H270.313ZM302.432 45V45.5H302.932V45H302.432ZM302.432 10.92V10.42H301.932V10.92H302.432ZM302.552 10.92L303.036 10.7947L302.939 10.42H302.552V10.92ZM311.372 45L310.888 45.1253L310.985 45.5H311.372V45ZM317.612 45V45.5H317.999L318.096 45.1253L317.612 45ZM326.432 10.92V10.42H326.045L325.948 10.7947L326.432 10.92ZM326.552 10.92H327.052V10.42H326.552V10.92ZM326.552 45H326.052V45.5H326.552V45ZM333.632 45V45.5H334.132V45H333.632ZM333.632 1.68H334.132V1.18H333.632V1.68ZM322.052 1.68V1.18H321.667L321.569 1.5525L322.052 1.68ZM314.552 30.12V30.62H314.938L315.036 30.2475L314.552 30.12ZM314.432 30.12L313.949 30.2475L314.047 30.62H314.432V30.12ZM306.932 1.68L307.416 1.5525L307.318 1.18H306.932V1.68ZM295.352 1.68V1.18H294.852V1.68H295.352ZM295.352 45H294.852V45.5H295.352V45ZM302.932 45V10.92H301.932V45H302.932ZM302.432 11.42H302.552V10.42H302.432V11.42ZM302.068 11.0453L310.888 45.1253L311.856 44.8747L303.036 10.7947L302.068 11.0453ZM311.372 45.5H317.612V44.5H311.372V45.5ZM318.096 45.1253L326.916 11.0453L325.948 10.7947L317.128 44.8747L318.096 45.1253ZM326.432 11.42H326.552V10.42H326.432V11.42ZM326.052 10.92V45H327.052V10.92H326.052ZM326.552 45.5H333.632V44.5H326.552V45.5ZM334.132 45V1.68H333.132V45H334.132ZM333.632 1.18H322.052V2.18H333.632V1.18ZM321.569 1.5525L314.069 29.9925L315.036 30.2475L322.536 1.80749L321.569 1.5525ZM314.552 29.62H314.432V30.62H314.552V29.62ZM314.916 29.9925L307.416 1.5525L306.449 1.80749L313.949 30.2475L314.916 29.9925ZM306.932 1.18H295.352V2.18H306.932V1.18ZM294.852 1.68V45H295.852V1.68H294.852ZM295.352 45.5H302.432V44.5H295.352V45.5Z" fill="#216937"/>
</svg>
