<svg width="239" height="282" viewBox="0 0 239 282" fill="none" xmlns="http://www.w3.org/2000/svg">
<path d="M15.456 10.568V9.568H14.6621L14.4821 10.3412L15.456 10.568ZM15.56 10.568L16.5347 10.3444L16.3565 9.568H15.56V10.568ZM19.044 25.752V26.752H20.2994L20.0187 25.5284L19.044 25.752ZM11.92 25.752L10.9461 25.5252L10.6604 26.752H11.92V25.752ZM8.592 40V41H9.36781L9.56063 40.2485L8.592 40ZM10.62 32.096V31.096H9.84419L9.65138 31.8475L10.62 32.096ZM20.552 32.096L21.5265 31.8716L21.3479 31.096H20.552V32.096ZM22.372 40L21.3975 40.2244L21.5761 41H22.372V40ZM29.236 40V41H30.5056L30.2082 39.7657L29.236 40ZM20.188 2.456L21.1602 2.22171L20.9756 1.456H20.188V2.456ZM10.984 2.456V1.456H10.2016L10.0134 2.21536L10.984 2.456ZM1.676 40L0.705385 39.7594L0.397803 41H1.676V40ZM15.456 11.568H15.56V9.568H15.456V11.568ZM14.5853 10.7916L18.0693 25.9756L20.0187 25.5284L16.5347 10.3444L14.5853 10.7916ZM19.044 24.752H11.92V26.752H19.044V24.752ZM12.8939 25.9788L16.4299 10.7948L14.4821 10.3412L10.9461 25.5252L12.8939 25.9788ZM9.56063 40.2485L11.5886 32.3445L9.65138 31.8475L7.62338 39.7515L9.56063 40.2485ZM10.62 33.096H20.552V31.096H10.62V33.096ZM19.5775 32.3204L21.3975 40.2244L23.3465 39.7756L21.5265 31.8716L19.5775 32.3204ZM22.372 41H29.236V39H22.372V41ZM30.2082 39.7657L21.1602 2.22171L19.2158 2.69029L28.2638 40.2343L30.2082 39.7657ZM20.188 1.456H10.984V3.456H20.188V1.456ZM10.0134 2.21536L0.705385 39.7594L2.64662 40.2406L11.9546 2.69663L10.0134 2.21536ZM1.676 41H8.592V39H1.676V41ZM58.4425 36.516H59.4425V35.5488L58.4758 35.5166L58.4425 36.516ZM54.6985 35.268L53.8141 34.8012L53.4124 35.5625L54.1053 36.0731L54.6985 35.268ZM50.9025 39.064L51.6645 38.4164L51.1335 37.7917L50.4169 38.1898L50.9025 39.064ZM58.4425 42.756V43.756H59.4425V42.756H58.4425ZM43.8825 30.64H42.8825V31.3509L43.554 31.5845L43.8825 30.64ZM47.0545 33.604L47.5507 34.4722L48.5047 33.9271L47.8723 33.0285L47.0545 33.604ZM49.0305 27.832V28.832H50.0305V27.832H49.0305ZM48.9265 27.832L48.0982 28.3923L48.3957 28.832H48.9265V27.832ZM43.8825 24.4L44.0147 23.4088L42.8825 23.2578V24.4H43.8825ZM58.4758 35.5166C57.118 35.4713 56.1172 35.0712 55.2917 34.4629L54.1053 36.0731C55.2559 36.9208 56.647 37.4567 58.4092 37.5154L58.4758 35.5166ZM55.5829 35.7348C56.6689 33.6771 57.2065 31.1117 57.2065 27.936H55.2065C55.2065 30.8963 54.7042 33.1149 53.8141 34.8012L55.5829 35.7348ZM57.2065 27.936V14.52H55.2065V27.936H57.2065ZM57.2065 14.52C57.2065 9.72344 55.9374 6.27198 53.5804 4.03211C51.233 1.80133 47.9775 0.935997 44.3505 0.935997V2.936C47.6916 2.936 50.3641 3.73466 52.2027 5.48188C54.0317 7.22002 55.2065 10.0606 55.2065 14.52H57.2065ZM44.3505 0.935997C40.7236 0.935997 37.4681 1.80133 35.1207 4.03211C32.7637 6.27198 31.4945 9.72344 31.4945 14.52H33.4945C33.4945 10.0606 34.6694 7.22002 36.4984 5.48188C38.337 3.73466 41.0095 2.936 44.3505 2.936V0.935997ZM31.4945 14.52V27.936H33.4945V14.52H31.4945ZM31.4945 27.936C31.4945 32.7326 32.7637 36.184 35.1207 38.4239C37.4681 40.6547 40.7236 41.52 44.3505 41.52V39.52C41.0095 39.52 38.337 38.7213 36.4984 36.9741C34.6694 35.236 33.4945 32.3954 33.4945 27.936H31.4945ZM44.3505 41.52C46.9532 41.52 49.3207 41.0868 51.3882 39.9382L50.4169 38.1898C48.7404 39.1212 46.7398 39.52 44.3505 39.52V41.52ZM50.1406 39.7116C52.036 41.9415 54.5806 43.756 58.4425 43.756V41.756C55.3365 41.756 53.3051 40.3465 51.6645 38.4164L50.1406 39.7116ZM59.4425 42.756V36.516H57.4425V42.756H59.4425ZM43.554 31.5845C44.4132 31.8834 45.2402 32.7634 46.2367 34.1795L47.8723 33.0285C46.8928 31.6366 45.7438 30.2286 44.2111 29.6955L43.554 31.5845ZM46.5584 32.7358C46.0446 33.0293 45.3596 33.176 44.3505 33.176V35.176C45.5255 35.176 46.6084 35.0107 47.5507 34.4722L46.5584 32.7358ZM44.3505 33.176C43.0254 33.176 42.1788 32.9063 41.6423 32.3741C41.1038 31.8399 40.6705 30.8348 40.6705 28.872H38.6705C38.6705 31.0692 39.1473 32.7161 40.2338 33.7939C41.3223 34.8737 42.8156 35.176 44.3505 35.176V33.176ZM40.6705 28.872V13.584H38.6705V28.872H40.6705ZM40.6705 13.584C40.6705 11.6212 41.1038 10.6161 41.6423 10.0819C42.1788 9.54972 43.0254 9.28 44.3505 9.28V7.28C42.8156 7.28 41.3223 7.58228 40.2338 8.66206C39.1473 9.73986 38.6705 11.3868 38.6705 13.584H40.6705ZM44.3505 9.28C45.6756 9.28 46.5223 9.54972 47.0588 10.0819C47.5973 10.6161 48.0305 11.6212 48.0305 13.584H50.0305C50.0305 11.3868 49.5538 9.73986 48.4673 8.66206C47.3788 7.58228 45.8854 7.28 44.3505 7.28V9.28ZM48.0305 13.584V27.832H50.0305V13.584H48.0305ZM49.0305 26.832H48.9265V28.832H49.0305V26.832ZM49.7548 27.2717C48.4667 25.3675 46.7387 23.772 44.0147 23.4088L43.7504 25.3912C45.7063 25.652 46.9944 26.7605 48.0982 28.3923L49.7548 27.2717ZM42.8825 24.4V30.64H44.8825V24.4H42.8825ZM62.4291 2.456V1.456H61.4291V2.456H62.4291ZM86.9211 2.456H87.9211V1.456H86.9211V2.456ZM79.7451 2.456V1.456H78.7451V2.456H79.7451ZM69.6051 2.456H70.6051V1.456H69.6051V2.456ZM61.4291 2.456V28.768H63.4291V2.456H61.4291ZM61.4291 28.768C61.4291 33.0998 62.7023 36.3449 65.1039 38.4903C67.485 40.6173 70.8169 41.52 74.6491 41.52V39.52C71.0972 39.52 68.3191 38.6807 66.4363 36.9987C64.5739 35.3351 63.4291 32.7042 63.4291 28.768H61.4291ZM74.6491 41.52C78.4812 41.52 81.8245 40.6174 84.218 38.4923C86.6329 36.3482 87.9211 33.103 87.9211 28.768H85.9211C85.9211 32.701 84.7652 35.3318 82.8901 36.9967C80.9936 38.6806 78.2009 39.52 74.6491 39.52V41.52ZM87.9211 28.768V2.456H85.9211V28.768H87.9211ZM86.9211 1.456H79.7451V3.456H86.9211V1.456ZM78.7451 2.456V28.716H80.7451V2.456H78.7451ZM78.7451 28.716C78.7451 30.381 78.3687 31.4574 77.7658 32.1165C77.1786 32.7583 76.2175 33.176 74.6491 33.176V35.176C76.5646 35.176 78.1515 34.6577 79.2414 33.4665C80.3154 32.2926 80.7451 30.639 80.7451 28.716H78.7451ZM74.6491 33.176C73.0808 33.176 72.1367 32.7586 71.5636 32.1222C70.9717 31.4651 70.6051 30.3882 70.6051 28.716H68.6051C68.6051 30.6318 69.0184 32.2849 70.0775 33.4608C71.1554 34.6574 72.7333 35.176 74.6491 35.176V33.176ZM70.6051 28.716V2.456H68.6051V28.716H70.6051ZM69.6051 1.456H62.4291V3.456H69.6051V1.456ZM101.394 40V41H102.394V40H101.394ZM101.394 2.456H102.394V1.456H101.394V2.456ZM94.2181 2.456V1.456H93.2181V2.456H94.2181ZM94.2181 40H93.2181V41H94.2181V40ZM102.394 40V2.456H100.394V40H102.394ZM101.394 1.456H94.2181V3.456H101.394V1.456ZM93.2181 2.456V40H95.2181V2.456H93.2181ZM94.2181 41H101.394V39H94.2181V41ZM109.055 47.696L108.109 47.3702L107.652 48.696H109.055V47.696ZM112.695 47.696V48.696H113.356L113.615 48.0877L112.695 47.696ZM115.971 40L116.891 40.3917L116.971 40.204V40H115.971ZM115.971 32.616H116.971V31.616H115.971V32.616ZM108.587 32.616V31.616H107.587V32.616H108.587ZM108.587 40H107.587V41H108.587V40ZM111.707 40L112.652 40.3258L113.109 39H111.707V40ZM109.055 48.696H112.695V46.696H109.055V48.696ZM113.615 48.0877L116.891 40.3917L115.051 39.6083L111.775 47.3043L113.615 48.0877ZM116.971 40V32.616H114.971V40H116.971ZM115.971 31.616H108.587V33.616H115.971V31.616ZM107.587 32.616V40H109.587V32.616H107.587ZM108.587 41H111.707V39H108.587V41ZM110.761 39.6742L108.109 47.3702L110 48.0218L112.652 40.3258L110.761 39.6742ZM2.6 87.936C2.6 92.7326 3.86915 96.184 6.22613 98.4239C8.57355 100.655 11.8291 101.52 15.456 101.52V99.52C12.1149 99.52 9.44245 98.7213 7.60387 96.9741C5.77485 95.236 4.6 92.3954 4.6 87.936H2.6ZM15.456 101.52C19.0829 101.52 22.3385 100.655 24.6859 98.4239C27.0429 96.184 28.312 92.7326 28.312 87.936H26.312C26.312 92.3954 25.1371 95.236 23.3081 96.9741C21.4696 98.7213 18.7971 99.52 15.456 99.52V101.52ZM28.312 87.936V74.52H26.312V87.936H28.312ZM28.312 74.52C28.312 69.7234 27.0429 66.272 24.6859 64.0321C22.3385 61.8013 19.0829 60.936 15.456 60.936V62.936C18.7971 62.936 21.4696 63.7347 23.3081 65.4819C25.1371 67.22 26.312 70.0606 26.312 74.52H28.312ZM15.456 60.936C11.8291 60.936 8.57355 61.8013 6.22613 64.0321C3.86915 66.272 2.6 69.7234 2.6 74.52H4.6C4.6 70.0606 5.77485 67.22 7.60387 65.4819C9.44245 63.7347 12.1149 62.936 15.456 62.936V60.936ZM2.6 74.52V87.936H4.6V74.52H2.6ZM11.776 73.584C11.776 71.6212 12.2093 70.6161 12.7478 70.0819C13.2843 69.5497 14.1309 69.28 15.456 69.28V67.28C13.9211 67.28 12.4277 67.5823 11.3392 68.6621C10.2527 69.7399 9.776 71.3868 9.776 73.584H11.776ZM15.456 69.28C16.7811 69.28 17.6277 69.5497 18.1642 70.0819C18.7027 70.6161 19.136 71.6212 19.136 73.584H21.136C21.136 71.3868 20.6593 69.7399 19.5728 68.6621C18.4843 67.5823 16.9909 67.28 15.456 67.28V69.28ZM19.136 73.584V88.872H21.136V73.584H19.136ZM19.136 88.872C19.136 90.8348 18.7027 91.8399 18.1642 92.3741C17.6277 92.9063 16.7811 93.176 15.456 93.176V95.176C16.9909 95.176 18.4843 94.8737 19.5728 93.7939C20.6593 92.7161 21.136 91.0692 21.136 88.872H19.136ZM15.456 93.176C14.1309 93.176 13.2843 92.9063 12.7478 92.3741C12.2093 91.8399 11.776 90.8348 11.776 88.872H9.776C9.776 91.0692 10.2527 92.7161 11.3392 93.7939C12.4277 94.8737 13.9211 95.176 15.456 95.176V93.176ZM11.776 88.872V73.584H9.776V88.872H11.776ZM54.7672 100V101H55.7672V100H54.7672ZM54.7672 83.776V82.776H53.7672V83.776H54.7672ZM63.8152 83.776V84.776H64.8152V83.776H63.8152ZM63.8152 77.432H64.8152V76.432H63.8152V77.432ZM54.7672 77.432H53.7672V78.432H54.7672V77.432ZM54.7672 68.8V67.8H53.7672V68.8H54.7672ZM66.3112 68.8V69.8H67.3112V68.8H66.3112ZM66.3112 62.456H67.3112V61.456H66.3112V62.456ZM47.5912 62.456V61.456H46.5912V62.456H47.5912ZM47.5912 100H46.5912V101H47.5912V100ZM55.7672 100V83.776H53.7672V100H55.7672ZM54.7672 84.776H63.8152V82.776H54.7672V84.776ZM64.8152 83.776V77.432H62.8152V83.776H64.8152ZM63.8152 76.432H54.7672V78.432H63.8152V76.432ZM55.7672 77.432V68.8H53.7672V77.432H55.7672ZM54.7672 69.8H66.3112V67.8H54.7672V69.8ZM67.3112 68.8V62.456H65.3112V68.8H67.3112ZM66.3112 61.456H47.5912V63.456H66.3112V61.456ZM46.5912 62.456V100H48.5912V62.456H46.5912ZM47.5912 101H54.7672V99H47.5912V101ZM71.1127 62.456V61.456H70.1127V62.456H71.1127ZM95.6047 62.456H96.6047V61.456H95.6047V62.456ZM88.4287 62.456V61.456H87.4287V62.456H88.4287ZM78.2887 62.456H79.2887V61.456H78.2887V62.456ZM70.1127 62.456V88.768H72.1127V62.456H70.1127ZM70.1127 88.768C70.1127 93.0998 71.3859 96.3449 73.7875 98.4903C76.1686 100.617 79.5005 101.52 83.3327 101.52V99.52C79.7808 99.52 77.0027 98.6807 75.1199 96.9987C73.2574 95.3351 72.1127 92.7042 72.1127 88.768H70.1127ZM83.3327 101.52C87.1648 101.52 90.5081 100.617 92.9016 98.4923C95.3165 96.3482 96.6047 93.103 96.6047 88.768H94.6047C94.6047 92.701 93.4488 95.3318 91.5737 96.9967C89.6772 98.6806 86.8845 99.52 83.3327 99.52V101.52ZM96.6047 88.768V62.456H94.6047V88.768H96.6047ZM95.6047 61.456H88.4287V63.456H95.6047V61.456ZM87.4287 62.456V88.716H89.4287V62.456H87.4287ZM87.4287 88.716C87.4287 90.381 87.0523 91.4574 86.4493 92.1165C85.8622 92.7583 84.9011 93.176 83.3327 93.176V95.176C85.2482 95.176 86.8351 94.6577 87.925 93.4665C88.999 92.2926 89.4287 90.639 89.4287 88.716H87.4287ZM83.3327 93.176C81.7644 93.176 80.8203 92.7586 80.2472 92.1222C79.6553 91.4651 79.2887 90.3883 79.2887 88.716H77.2887C77.2887 90.6318 77.702 92.2849 78.7611 93.4608C79.839 94.6574 81.4169 95.176 83.3327 95.176V93.176ZM79.2887 88.716V62.456H77.2887V88.716H79.2887ZM78.2887 61.456H71.1127V63.456H78.2887V61.456ZM100.302 62.456V61.456H99.3017V62.456H100.302ZM100.302 68.8H99.3017V69.8H100.302V68.8ZM108.674 68.8H109.674V67.8H108.674V68.8ZM108.674 100H107.674V101H108.674V100ZM115.85 100V101H116.85V100H115.85ZM115.85 68.8V67.8H114.85V68.8H115.85ZM124.222 68.8V69.8H125.222V68.8H124.222ZM124.222 62.456H125.222V61.456H124.222V62.456ZM99.3017 62.456V68.8H101.302V62.456H99.3017ZM100.302 69.8H108.674V67.8H100.302V69.8ZM107.674 68.8V100H109.674V68.8H107.674ZM108.674 101H115.85V99H108.674V101ZM116.85 100V68.8H114.85V100H116.85ZM115.85 69.8H124.222V67.8H115.85V69.8ZM125.222 68.8V62.456H123.222V68.8H125.222ZM124.222 61.456H100.302V63.456H124.222V61.456ZM128.902 62.456V61.456H127.902V62.456H128.902ZM153.394 62.456H154.394V61.456H153.394V62.456ZM146.218 62.456V61.456H145.218V62.456H146.218ZM136.078 62.456H137.078V61.456H136.078V62.456ZM127.902 62.456V88.768H129.902V62.456H127.902ZM127.902 88.768C127.902 93.0998 129.175 96.3449 131.577 98.4903C133.958 100.617 137.29 101.52 141.122 101.52V99.52C137.57 99.52 134.792 98.6807 132.909 96.9987C131.047 95.3351 129.902 92.7042 129.902 88.768H127.902ZM141.122 101.52C144.954 101.52 148.297 100.617 150.691 98.4923C153.106 96.3482 154.394 93.103 154.394 88.768H152.394C152.394 92.701 151.238 95.3318 149.363 96.9967C147.466 98.6806 144.674 99.52 141.122 99.52V101.52ZM154.394 88.768V62.456H152.394V88.768H154.394ZM153.394 61.456H146.218V63.456H153.394V61.456ZM145.218 62.456V88.716H147.218V62.456H145.218ZM145.218 88.716C145.218 90.381 144.841 91.4574 144.238 92.1165C143.651 92.7583 142.69 93.176 141.122 93.176V95.176C143.037 95.176 144.624 94.6577 145.714 93.4665C146.788 92.2926 147.218 90.639 147.218 88.716H145.218ZM141.122 93.176C139.553 93.176 138.609 92.7586 138.036 92.1222C137.444 91.4651 137.078 90.3883 137.078 88.716H135.078C135.078 90.6318 135.491 92.2849 136.55 93.4608C137.628 94.6574 139.206 95.176 141.122 95.176V93.176ZM137.078 88.716V62.456H135.078V88.716H137.078ZM136.078 61.456H128.902V63.456H136.078V61.456ZM184.819 100V101H186.327L185.74 99.6109L184.819 100ZM177.747 83.256L177.394 82.3202L176.421 82.6868L176.826 83.6451L177.747 83.256ZM160.275 62.456V61.456H159.275V62.456H160.275ZM160.275 100H159.275V101H160.275V100ZM167.451 100V101H168.451V100H167.451ZM167.451 84.712V83.712H166.451V84.712H167.451ZM170.883 84.712L171.809 84.3341L171.555 83.712H170.883V84.712ZM177.123 100L176.197 100.378L176.451 101H177.123V100ZM167.451 68.384V67.384H166.451V68.384H167.451ZM167.451 78.784H166.451V79.784H167.451V78.784ZM185.74 99.6109L178.668 82.8669L176.826 83.6451L183.898 100.389L185.74 99.6109ZM178.099 84.1918C180.306 83.3608 181.913 81.9896 182.952 80.1542C183.98 78.339 184.415 76.138 184.415 73.688H182.415C182.415 75.918 182.017 77.747 181.212 79.1688C180.418 80.5704 179.192 81.6432 177.394 82.3202L178.099 84.1918ZM184.415 73.688C184.415 69.9578 183.326 66.8467 180.956 64.6817C178.602 62.5305 175.137 61.456 170.675 61.456V63.456C174.845 63.456 177.75 64.4615 179.607 66.1583C181.45 67.8413 182.415 70.3462 182.415 73.688H184.415ZM170.675 61.456H160.275V63.456H170.675V61.456ZM159.275 62.456V100H161.275V62.456H159.275ZM160.275 101H167.451V99H160.275V101ZM168.451 100V84.712H166.451V100H168.451ZM167.451 85.712H170.883V83.712H167.451V85.712ZM169.957 85.0899L176.197 100.378L178.049 99.6221L171.809 84.3341L169.957 85.0899ZM177.123 101H184.819V99H177.123V101ZM167.451 69.384H171.143V67.384H167.451V69.384ZM171.143 69.384C172.579 69.384 173.561 69.7372 174.187 70.3393C174.805 70.9347 175.239 71.9328 175.239 73.584H177.239C177.239 71.5952 176.711 69.9933 175.574 68.8987C174.444 67.8108 172.879 67.384 171.143 67.384V69.384ZM175.239 73.584C175.239 75.2352 174.805 76.2333 174.187 76.8287C173.561 77.4308 172.579 77.784 171.143 77.784V79.784C172.879 79.784 174.444 79.3572 175.574 78.2693C176.711 77.1747 177.239 75.5728 177.239 73.584H175.239ZM171.143 77.784H167.451V79.784H171.143V77.784ZM168.451 78.784V68.384H166.451V78.784H168.451ZM187.545 87.936C187.545 92.7326 188.814 96.184 191.171 98.4239C193.519 100.655 196.774 101.52 200.401 101.52V99.52C197.06 99.52 194.388 98.7213 192.549 96.9741C190.72 95.236 189.545 92.3954 189.545 87.936H187.545ZM200.401 101.52C204.028 101.52 207.284 100.655 209.631 98.4239C211.988 96.184 213.257 92.7326 213.257 87.936H211.257C211.257 92.3954 210.082 95.236 208.253 96.9741C206.415 98.7213 203.742 99.52 200.401 99.52V101.52ZM213.257 87.936V74.52H211.257V87.936H213.257ZM213.257 74.52C213.257 69.7234 211.988 66.272 209.631 64.0321C207.284 61.8013 204.028 60.936 200.401 60.936V62.936C203.742 62.936 206.415 63.7347 208.253 65.4819C210.082 67.22 211.257 70.0606 211.257 74.52H213.257ZM200.401 60.936C196.774 60.936 193.519 61.8013 191.171 64.0321C188.814 66.272 187.545 69.7234 187.545 74.52H189.545C189.545 70.0606 190.72 67.22 192.549 65.4819C194.388 63.7347 197.06 62.936 200.401 62.936V60.936ZM187.545 74.52V87.936H189.545V74.52H187.545ZM196.721 73.584C196.721 71.6212 197.155 70.6161 197.693 70.0819C198.23 69.5497 199.076 69.28 200.401 69.28V67.28C198.866 67.28 197.373 67.5823 196.285 68.6621C195.198 69.7399 194.721 71.3868 194.721 73.584H196.721ZM200.401 69.28C201.726 69.28 202.573 69.5497 203.11 70.0819C203.648 70.6161 204.081 71.6212 204.081 73.584H206.081C206.081 71.3868 205.605 69.7399 204.518 68.6621C203.43 67.5823 201.936 67.28 200.401 67.28V69.28ZM204.081 73.584V88.872H206.081V73.584H204.081ZM204.081 88.872C204.081 90.8348 203.648 91.8399 203.11 92.3741C202.573 92.9063 201.726 93.176 200.401 93.176V95.176C201.936 95.176 203.43 94.8737 204.518 93.7939C205.605 92.7161 206.081 91.0692 206.081 88.872H204.081ZM200.401 93.176C199.076 93.176 198.23 92.9063 197.693 92.3741C197.155 91.8399 196.721 90.8348 196.721 88.872H194.721C194.721 91.0692 195.198 92.7161 196.285 93.7939C197.373 94.8737 198.866 95.176 200.401 95.176V93.176ZM196.721 88.872V73.584H194.721V88.872H196.721ZM15.456 130.568V129.568H14.6621L14.4821 130.341L15.456 130.568ZM15.56 130.568L16.5347 130.344L16.3565 129.568H15.56V130.568ZM19.044 145.752V146.752H20.2994L20.0187 145.528L19.044 145.752ZM11.92 145.752L10.9461 145.525L10.6604 146.752H11.92V145.752ZM8.592 160V161H9.36781L9.56063 160.249L8.592 160ZM10.62 152.096V151.096H9.84419L9.65138 151.847L10.62 152.096ZM20.552 152.096L21.5265 151.872L21.3479 151.096H20.552V152.096ZM22.372 160L21.3975 160.224L21.5761 161H22.372V160ZM29.236 160V161H30.5056L30.2082 159.766L29.236 160ZM20.188 122.456L21.1602 122.222L20.9756 121.456H20.188V122.456ZM10.984 122.456V121.456H10.2016L10.0134 122.215L10.984 122.456ZM1.676 160L0.705385 159.759L0.397803 161H1.676V160ZM15.456 131.568H15.56V129.568H15.456V131.568ZM14.5853 130.792L18.0693 145.976L20.0187 145.528L16.5347 130.344L14.5853 130.792ZM19.044 144.752H11.92V146.752H19.044V144.752ZM12.8939 145.979L16.4299 130.795L14.4821 130.341L10.9461 145.525L12.8939 145.979ZM9.56063 160.249L11.5886 152.345L9.65138 151.847L7.62338 159.751L9.56063 160.249ZM10.62 153.096H20.552V151.096H10.62V153.096ZM19.5775 152.32L21.3975 160.224L23.3465 159.776L21.5265 151.872L19.5775 152.32ZM22.372 161H29.236V159H22.372V161ZM30.2082 159.766L21.1602 122.222L19.2158 122.69L28.2638 160.234L30.2082 159.766ZM20.188 121.456H10.984V123.456H20.188V121.456ZM10.0134 122.215L0.705385 159.759L2.64662 160.241L11.9546 122.697L10.0134 122.215ZM1.676 161H8.592V159H1.676V161ZM40.7105 160V161H41.7105V160H40.7105ZM40.7105 144.92V143.92H39.7105V144.92H40.7105ZM33.5345 122.456V121.456H32.5345V122.456H33.5345ZM33.5345 160H32.5345V161H33.5345V160ZM40.7105 128.384V127.384H39.7105V128.384H40.7105ZM40.7105 138.992H39.7105V139.992H40.7105V138.992ZM41.7105 160V144.92H39.7105V160H41.7105ZM40.7105 145.92H43.8825V143.92H40.7105V145.92ZM43.8825 145.92C48.4434 145.92 52.0054 144.848 54.4366 142.706C56.8886 140.546 58.0385 137.433 58.0385 133.688H56.0385C56.0385 137.015 55.0305 139.518 53.1145 141.206C51.1777 142.912 48.1617 143.92 43.8825 143.92V145.92ZM58.0385 133.688C58.0385 129.943 56.8886 126.83 54.4366 124.67C52.0054 122.528 48.4434 121.456 43.8825 121.456V123.456C48.1617 123.456 51.1777 124.464 53.1145 126.17C55.0305 127.858 56.0385 130.361 56.0385 133.688H58.0385ZM43.8825 121.456H33.5345V123.456H43.8825V121.456ZM32.5345 122.456V160H34.5345V122.456H32.5345ZM33.5345 161H40.7105V159H33.5345V161ZM40.7105 129.384H44.5585V127.384H40.7105V129.384ZM44.5585 129.384C46.1724 129.384 47.1991 129.787 47.8294 130.417C48.4597 131.047 48.8625 132.074 48.8625 133.688H50.8625C50.8625 131.766 50.3813 130.141 49.2436 129.003C48.106 127.865 46.4807 127.384 44.5585 127.384V129.384ZM48.8625 133.688C48.8625 135.302 48.4597 136.329 47.8294 136.959C47.1991 137.589 46.1724 137.992 44.5585 137.992V139.992C46.4807 139.992 48.106 139.511 49.2436 138.373C50.3813 137.235 50.8625 135.61 50.8625 133.688H48.8625ZM44.5585 137.992H40.7105V139.992H44.5585V137.992ZM41.7105 138.992V128.384H39.7105V138.992H41.7105ZM60.3891 147.936C60.3891 152.733 61.6582 156.184 64.0152 158.424C66.3626 160.655 69.6181 161.52 73.2451 161.52V159.52C69.904 159.52 67.2315 158.721 65.3929 156.974C63.5639 155.236 62.3891 152.395 62.3891 147.936H60.3891ZM73.2451 161.52C76.872 161.52 80.1275 160.655 82.4749 158.424C84.8319 156.184 86.1011 152.733 86.1011 147.936H84.1011C84.1011 152.395 82.9262 155.236 81.0972 156.974C79.2586 158.721 76.5861 159.52 73.2451 159.52V161.52ZM86.1011 147.936V134.52H84.1011V147.936H86.1011ZM86.1011 134.52C86.1011 129.723 84.8319 126.272 82.4749 124.032C80.1275 121.801 76.872 120.936 73.2451 120.936V122.936C76.5861 122.936 79.2586 123.735 81.0972 125.482C82.9262 127.22 84.1011 130.061 84.1011 134.52H86.1011ZM73.2451 120.936C69.6181 120.936 66.3626 121.801 64.0152 124.032C61.6582 126.272 60.3891 129.723 60.3891 134.52H62.3891C62.3891 130.061 63.5639 127.22 65.3929 125.482C67.2315 123.735 69.904 122.936 73.2451 122.936V120.936ZM60.3891 134.52V147.936H62.3891V134.52H60.3891ZM69.5651 133.584C69.5651 131.621 69.9983 130.616 70.5368 130.082C71.0733 129.55 71.92 129.28 73.2451 129.28V127.28C71.7102 127.28 70.2168 127.582 69.1283 128.662C68.0418 129.74 67.5651 131.387 67.5651 133.584H69.5651ZM73.2451 129.28C74.5702 129.28 75.4168 129.55 75.9533 130.082C76.4918 130.616 76.9251 131.621 76.9251 133.584H78.9251C78.9251 131.387 78.4483 129.74 77.3618 128.662C76.2733 127.582 74.78 127.28 73.2451 127.28V129.28ZM76.9251 133.584V148.872H78.9251V133.584H76.9251ZM76.9251 148.872C76.9251 150.835 76.4918 151.84 75.9533 152.374C75.4168 152.906 74.5702 153.176 73.2451 153.176V155.176C74.78 155.176 76.2733 154.874 77.3618 153.794C78.4483 152.716 78.9251 151.069 78.9251 148.872H76.9251ZM73.2451 153.176C71.92 153.176 71.0733 152.906 70.5368 152.374C69.9983 151.84 69.5651 150.835 69.5651 148.872H67.5651C67.5651 151.069 68.0418 152.716 69.1283 153.794C70.2168 154.874 71.7102 155.176 73.2451 155.176V153.176ZM69.5651 148.872V133.584H67.5651V148.872H69.5651ZM97.8756 160V161H98.8756V160H97.8756ZM97.8756 135.768V134.768H96.8756V135.768H97.8756ZM97.9796 135.768L98.8906 135.356L98.6245 134.768H97.9796V135.768ZM108.952 160L108.041 160.412L108.307 161H108.952V160ZM115.816 160V161H116.816V160H115.816ZM115.816 122.456H116.816V121.456H115.816V122.456ZM109.264 122.456V121.456H108.264V122.456H109.264ZM109.264 144.712V145.712H110.264V144.712H109.264ZM109.16 144.712L108.247 145.121L108.512 145.712H109.16V144.712ZM99.1756 122.456L100.088 122.047L99.823 121.456H99.1756V122.456ZM91.3236 122.456V121.456H90.3236V122.456H91.3236ZM91.3236 160H90.3236V161H91.3236V160ZM98.8756 160V135.768H96.8756V160H98.8756ZM97.8756 136.768H97.9796V134.768H97.8756V136.768ZM97.0686 136.18L108.041 160.412L109.863 159.588L98.8906 135.356L97.0686 136.18ZM108.952 161H115.816V159H108.952V161ZM116.816 160V122.456H114.816V160H116.816ZM115.816 121.456H109.264V123.456H115.816V121.456ZM108.264 122.456V144.712H110.264V122.456H108.264ZM109.264 143.712H109.16V145.712H109.264V143.712ZM110.072 144.303L100.088 122.047L98.2632 122.865L108.247 145.121L110.072 144.303ZM99.1756 121.456H91.3236V123.456H99.1756V121.456ZM90.3236 122.456V160H92.3236V122.456H90.3236ZM91.3236 161H97.8756V159H91.3236V161ZM120.513 122.456V121.456H119.513V122.456H120.513ZM120.513 128.8H119.513V129.8H120.513V128.8ZM128.885 128.8H129.885V127.8H128.885V128.8ZM128.885 160H127.885V161H128.885V160ZM136.061 160V161H137.061V160H136.061ZM136.061 128.8V127.8H135.061V128.8H136.061ZM144.433 128.8V129.8H145.433V128.8H144.433ZM144.433 122.456H145.433V121.456H144.433V122.456ZM119.513 122.456V128.8H121.513V122.456H119.513ZM120.513 129.8H128.885V127.8H120.513V129.8ZM127.885 128.8V160H129.885V128.8H127.885ZM128.885 161H136.061V159H128.885V161ZM137.061 160V128.8H135.061V160H137.061ZM136.061 129.8H144.433V127.8H136.061V129.8ZM145.433 128.8V122.456H143.433V128.8H145.433ZM144.433 121.456H120.513V123.456H144.433V121.456ZM157.999 130.568V129.568H157.205L157.025 130.341L157.999 130.568ZM158.103 130.568L159.078 130.344L158.9 129.568H158.103V130.568ZM161.587 145.752V146.752H162.842L162.562 145.528L161.587 145.752ZM154.463 145.752L153.489 145.525L153.203 146.752H154.463V145.752ZM151.135 160V161H151.911L152.104 160.249L151.135 160ZM153.163 152.096V151.096H152.387L152.194 151.847L153.163 152.096ZM163.095 152.096L164.069 151.872L163.891 151.096H163.095V152.096ZM164.915 160L163.94 160.224L164.119 161H164.915V160ZM171.779 160V161H173.049L172.751 159.766L171.779 160ZM162.731 122.456L163.703 122.222L163.519 121.456H162.731V122.456ZM153.527 122.456V121.456H152.745L152.556 122.215L153.527 122.456ZM144.219 160L143.248 159.759L142.941 161H144.219V160ZM157.999 131.568H158.103V129.568H157.999V131.568ZM157.128 130.792L160.612 145.976L162.562 145.528L159.078 130.344L157.128 130.792ZM161.587 144.752H154.463V146.752H161.587V144.752ZM155.437 145.979L158.973 130.795L157.025 130.341L153.489 145.525L155.437 145.979ZM152.104 160.249L154.132 152.345L152.194 151.847L150.166 159.751L152.104 160.249ZM153.163 153.096H163.095V151.096H153.163V153.096ZM162.12 152.32L163.94 160.224L165.889 159.776L164.069 151.872L162.12 152.32ZM164.915 161H171.779V159H164.915V161ZM172.751 159.766L163.703 122.222L161.759 122.69L170.807 160.234L172.751 159.766ZM162.731 121.456H153.527V123.456H162.731V121.456ZM152.556 122.215L143.248 159.759L145.19 160.241L154.498 122.697L152.556 122.215ZM144.219 161H151.135V159H144.219V161ZM11.816 220V221H12.816V220H11.816ZM11.816 204.92V203.92H10.816V204.92H11.816ZM4.64 182.456V181.456H3.64V182.456H4.64ZM4.64 220H3.64V221H4.64V220ZM11.816 188.384V187.384H10.816V188.384H11.816ZM11.816 198.992H10.816V199.992H11.816V198.992ZM12.816 220V204.92H10.816V220H12.816ZM11.816 205.92H14.988V203.92H11.816V205.92ZM14.988 205.92C19.5488 205.92 23.1109 204.848 25.542 202.706C27.994 200.546 29.144 197.433 29.144 193.688H27.144C27.144 197.015 26.136 199.518 24.22 201.206C22.2831 202.912 19.2672 203.92 14.988 203.92V205.92ZM29.144 193.688C29.144 189.943 27.994 186.83 25.542 184.67C23.1109 182.528 19.5488 181.456 14.988 181.456V183.456C19.2672 183.456 22.2831 184.464 24.22 186.17C26.136 187.858 27.144 190.361 27.144 193.688H29.144ZM14.988 181.456H4.64V183.456H14.988V181.456ZM3.64 182.456V220H5.64V182.456H3.64ZM4.64 221H11.816V219H4.64V221ZM11.816 189.384H15.664V187.384H11.816V189.384ZM15.664 189.384C17.2779 189.384 18.3046 189.787 18.9349 190.417C19.5652 191.047 19.968 192.074 19.968 193.688H21.968C21.968 191.766 21.4868 190.141 20.3491 189.003C19.2114 187.865 17.5861 187.384 15.664 187.384V189.384ZM19.968 193.688C19.968 195.302 19.5652 196.329 18.9349 196.959C18.3046 197.589 17.2779 197.992 15.664 197.992V199.992C17.5861 199.992 19.2114 199.511 20.3491 198.373C21.4868 197.235 21.968 195.61 21.968 193.688H19.968ZM15.664 197.992H11.816V199.992H15.664V197.992ZM12.816 198.992V188.384H10.816V198.992H12.816ZM42.4208 190.568V189.568H41.627L41.4469 190.341L42.4208 190.568ZM42.5248 190.568L43.4995 190.344L43.3214 189.568H42.5248V190.568ZM46.0088 205.752V206.752H47.2643L46.9835 205.528L46.0088 205.752ZM38.8848 205.752L37.9109 205.525L37.6252 206.752H38.8848V205.752ZM35.5568 220V221H36.3327L36.5255 220.249L35.5568 220ZM37.5848 212.096V211.096H36.809L36.6162 211.847L37.5848 212.096ZM47.5168 212.096L48.4913 211.872L48.3127 211.096H47.5168V212.096ZM49.3368 220L48.3623 220.224L48.5409 221H49.3368V220ZM56.2008 220V221H57.4705L57.173 219.766L56.2008 220ZM47.1528 182.456L48.125 182.222L47.9405 181.456H47.1528V182.456ZM37.9488 182.456V181.456H37.1665L36.9782 182.215L37.9488 182.456ZM28.6408 220L27.6702 219.759L27.3626 221H28.6408V220ZM42.4208 191.568H42.5248V189.568H42.4208V191.568ZM41.5502 190.792L45.0342 205.976L46.9835 205.528L43.4995 190.344L41.5502 190.792ZM46.0088 204.752H38.8848V206.752H46.0088V204.752ZM39.8588 205.979L43.3948 190.795L41.4469 190.341L37.9109 205.525L39.8588 205.979ZM36.5255 220.249L38.5535 212.345L36.6162 211.847L34.5882 219.751L36.5255 220.249ZM37.5848 213.096H47.5168V211.096H37.5848V213.096ZM46.5423 212.32L48.3623 220.224L50.3113 219.776L48.4913 211.872L46.5423 212.32ZM49.3368 221H56.2008V219H49.3368V221ZM57.173 219.766L48.125 182.222L46.1807 182.69L55.2287 220.234L57.173 219.766ZM47.1528 181.456H37.9488V183.456H47.1528V181.456ZM36.9782 182.215L27.6702 219.759L29.6115 220.241L38.9195 182.697L36.9782 182.215ZM28.6408 221H35.5568V219H28.6408V221ZM84.6274 220V221H86.1353L85.5486 219.611L84.6274 220ZM77.5554 203.256L77.2029 202.32L76.2294 202.687L76.6342 203.645L77.5554 203.256ZM60.0834 182.456V181.456H59.0834V182.456H60.0834ZM60.0834 220H59.0834V221H60.0834V220ZM67.2594 220V221H68.2594V220H67.2594ZM67.2594 204.712V203.712H66.2594V204.712H67.2594ZM70.6914 204.712L71.6172 204.334L71.3633 203.712H70.6914V204.712ZM76.9314 220L76.0055 220.378L76.2594 221H76.9314V220ZM67.2594 188.384V187.384H66.2594V188.384H67.2594ZM67.2594 198.784H66.2594V199.784H67.2594V198.784ZM85.5486 219.611L78.4766 202.867L76.6342 203.645L83.7062 220.389L85.5486 219.611ZM77.9078 204.192C80.1144 203.361 81.7217 201.99 82.761 200.154C83.789 198.339 84.2234 196.138 84.2234 193.688H82.2234C82.2234 195.918 81.8258 197.747 81.0207 199.169C80.227 200.57 79.0004 201.643 77.2029 202.32L77.9078 204.192ZM84.2234 193.688C84.2234 189.958 83.1346 186.847 80.7649 184.682C78.4102 182.531 74.9453 181.456 70.4834 181.456V183.456C74.6534 183.456 77.5586 184.461 79.4159 186.158C81.2581 187.841 82.2234 190.346 82.2234 193.688H84.2234ZM70.4834 181.456H60.0834V183.456H70.4834V181.456ZM59.0834 182.456V220H61.0834V182.456H59.0834ZM60.0834 221H67.2594V219H60.0834V221ZM68.2594 220V204.712H66.2594V220H68.2594ZM67.2594 205.712H70.6914V203.712H67.2594V205.712ZM69.7655 205.09L76.0055 220.378L77.8572 219.622L71.6172 204.334L69.7655 205.09ZM76.9314 221H84.6274V219H76.9314V221ZM67.2594 189.384H70.9514V187.384H67.2594V189.384ZM70.9514 189.384C72.3875 189.384 73.37 189.737 73.9952 190.339C74.6135 190.935 75.0474 191.933 75.0474 193.584H77.0474C77.0474 191.595 76.5193 189.993 75.3825 188.899C74.2528 187.811 72.6873 187.384 70.9514 187.384V189.384ZM75.0474 193.584C75.0474 195.235 74.6135 196.233 73.9952 196.829C73.37 197.431 72.3875 197.784 70.9514 197.784V199.784C72.6873 199.784 74.2528 199.357 75.3825 198.269C76.5193 197.175 77.0474 195.573 77.0474 193.584H75.0474ZM70.9514 197.784H67.2594V199.784H70.9514V197.784ZM68.2594 198.784V188.384H66.2594V198.784H68.2594ZM100.21 190.568V189.568H99.416L99.236 190.341L100.21 190.568ZM100.314 190.568L101.289 190.344L101.11 189.568H100.314V190.568ZM103.798 205.752V206.752H105.053L104.773 205.528L103.798 205.752ZM96.6739 205.752L95.7 205.525L95.4143 206.752H96.6739V205.752ZM93.3459 220V221H94.1217L94.3145 220.249L93.3459 220ZM95.3739 212.096V211.096H94.5981L94.4053 211.847L95.3739 212.096ZM105.306 212.096L106.28 211.872L106.102 211.096H105.306V212.096ZM107.126 220L106.151 220.224L106.33 221H107.126V220ZM113.99 220V221H115.26L114.962 219.766L113.99 220ZM104.942 182.456L105.914 182.222L105.73 181.456H104.942V182.456ZM95.7379 182.456V181.456H94.9556L94.7673 182.215L95.7379 182.456ZM86.4299 220L85.4593 219.759L85.1517 221H86.4299V220ZM100.21 191.568H100.314V189.568H100.21V191.568ZM99.3392 190.792L102.823 205.976L104.773 205.528L101.289 190.344L99.3392 190.792ZM103.798 204.752H96.6739V206.752H103.798V204.752ZM97.6478 205.979L101.184 190.795L99.236 190.341L95.7 205.525L97.6478 205.979ZM94.3145 220.249L96.3425 212.345L94.4053 211.847L92.3773 219.751L94.3145 220.249ZM95.3739 213.096H105.306V211.096H95.3739V213.096ZM104.331 212.32L106.151 220.224L108.1 219.776L106.28 211.872L104.331 212.32ZM107.126 221H113.99V219H107.126V221ZM114.962 219.766L105.914 182.222L103.97 182.69L113.018 220.234L114.962 219.766ZM104.942 181.456H95.7379V183.456H104.942V181.456ZM94.7673 182.215L85.4593 219.759L87.4005 220.241L96.7085 182.697L94.7673 182.215ZM86.4299 221H93.3459V219H86.4299V221ZM143.577 190.568V189.568H142.783L142.603 190.341L143.577 190.568ZM143.681 190.568L144.656 190.344L144.478 189.568H143.681V190.568ZM147.165 205.752V206.752H148.421L148.14 205.528L147.165 205.752ZM140.041 205.752L139.067 205.525L138.781 206.752H140.041V205.752ZM136.713 220V221H137.489L137.682 220.249L136.713 220ZM138.741 212.096V211.096H137.965L137.772 211.847L138.741 212.096ZM148.673 212.096L149.648 211.872L149.469 211.096H148.673V212.096ZM150.493 220L149.519 220.224L149.697 221H150.493V220ZM157.357 220V221H158.627L158.329 219.766L157.357 220ZM148.309 182.456L149.281 182.222L149.097 181.456H148.309V182.456ZM139.105 182.456V181.456H138.323L138.134 182.215L139.105 182.456ZM129.797 220L128.826 219.759L128.519 221H129.797V220ZM143.577 191.568H143.681V189.568H143.577V191.568ZM142.706 190.792L146.19 205.976L148.14 205.528L144.656 190.344L142.706 190.792ZM147.165 204.752H140.041V206.752H147.165V204.752ZM141.015 205.979L144.551 190.795L142.603 190.341L139.067 205.525L141.015 205.979ZM137.682 220.249L139.71 212.345L137.772 211.847L135.744 219.751L137.682 220.249ZM138.741 213.096H148.673V211.096H138.741V213.096ZM147.699 212.32L149.519 220.224L151.468 219.776L149.648 211.872L147.699 212.32ZM150.493 221H157.357V219H150.493V221ZM158.329 219.766L149.281 182.222L147.337 182.69L156.385 220.234L158.329 219.766ZM148.309 181.456H139.105V183.456H148.309V181.456ZM138.134 182.215L128.826 219.759L130.768 220.241L140.076 182.697L138.134 182.215ZM129.797 221H136.713V219H129.797V221ZM11.192 280V281H12.192V280H11.192ZM11.192 255.768V254.768H10.192V255.768H11.192ZM11.296 255.768L12.207 255.356L11.9409 254.768H11.296V255.768ZM22.268 280L21.357 280.412L21.6231 281H22.268V280ZM29.132 280V281H30.132V280H29.132ZM29.132 242.456H30.132V241.456H29.132V242.456ZM22.58 242.456V241.456H21.58V242.456H22.58ZM22.58 264.712V265.712H23.58V264.712H22.58ZM22.476 264.712L21.5636 265.121L21.8286 265.712H22.476V264.712ZM12.492 242.456L13.4044 242.047L13.1394 241.456H12.492V242.456ZM4.64 242.456V241.456H3.64V242.456H4.64ZM4.64 280H3.64V281H4.64V280ZM12.192 280V255.768H10.192V280H12.192ZM11.192 256.768H11.296V254.768H11.192V256.768ZM10.385 256.18L21.357 280.412L23.179 279.588L12.207 255.356L10.385 256.18ZM22.268 281H29.132V279H22.268V281ZM30.132 280V242.456H28.132V280H30.132ZM29.132 241.456H22.58V243.456H29.132V241.456ZM21.58 242.456V264.712H23.58V242.456H21.58ZM22.58 263.712H22.476V265.712H22.58V263.712ZM23.3884 264.303L13.4044 242.047L11.5796 242.865L21.5636 265.121L23.3884 264.303ZM12.492 241.456H4.64V243.456H12.492V241.456ZM3.64 242.456V280H5.64V242.456H3.64ZM4.64 281H11.192V279H4.64V281ZM47.2451 250.568V249.568H46.4512L46.2711 250.341L47.2451 250.568ZM47.3491 250.568L48.3237 250.344L48.1456 249.568H47.3491V250.568ZM50.8331 265.752V266.752H52.0885L51.8077 265.528L50.8331 265.752ZM43.7091 265.752L42.7351 265.525L42.4494 266.752H43.7091V265.752ZM40.3811 280V281H41.1569L41.3497 280.249L40.3811 280ZM42.4091 272.096V271.096H41.6333L41.4404 271.847L42.4091 272.096ZM52.3411 272.096L53.3156 271.872L53.137 271.096H52.3411V272.096ZM54.1611 280L53.1866 280.224L53.3652 281H54.1611V280ZM61.0251 280V281H62.2947L61.9972 279.766L61.0251 280ZM51.9771 242.456L52.9492 242.222L52.7647 241.456H51.9771V242.456ZM42.7731 242.456V241.456H41.9907L41.8024 242.215L42.7731 242.456ZM33.4651 280L32.4944 279.759L32.1869 281H33.4651V280ZM47.2451 251.568H47.3491V249.568H47.2451V251.568ZM46.3744 250.792L49.8584 265.976L51.8077 265.528L48.3237 250.344L46.3744 250.792ZM50.8331 264.752H43.7091V266.752H50.8331V264.752ZM44.683 265.979L48.219 250.795L46.2711 250.341L42.7351 265.525L44.683 265.979ZM41.3497 280.249L43.3777 272.345L41.4404 271.847L39.4124 279.751L41.3497 280.249ZM42.4091 273.096H52.3411V271.096H42.4091V273.096ZM51.3666 272.32L53.1866 280.224L55.1356 279.776L53.3156 271.872L51.3666 272.32ZM54.1611 281H61.0251V279H54.1611V281ZM61.9972 279.766L52.9492 242.222L51.0049 242.69L60.0529 280.234L61.9972 279.766ZM51.9771 241.456H42.7731V243.456H51.9771V241.456ZM41.8024 242.215L32.4944 279.759L34.4357 280.241L43.7437 242.697L41.8024 242.215ZM33.4651 281H40.3811V279H33.4651V281ZM59.8798 242.456V241.456H58.8798V242.456H59.8798ZM59.8798 248.8H58.8798V249.8H59.8798V248.8ZM68.2518 248.8H69.2518V247.8H68.2518V248.8ZM68.2518 280H67.2518V281H68.2518V280ZM75.4278 280V281H76.4278V280H75.4278ZM75.4278 248.8V247.8H74.4278V248.8H75.4278ZM83.7998 248.8V249.8H84.7998V248.8H83.7998ZM83.7998 242.456H84.7998V241.456H83.7998V242.456ZM58.8798 242.456V248.8H60.8798V242.456H58.8798ZM59.8798 249.8H68.2518V247.8H59.8798V249.8ZM67.2518 248.8V280H69.2518V248.8H67.2518ZM68.2518 281H75.4278V279H68.2518V281ZM76.4278 280V248.8H74.4278V280H76.4278ZM75.4278 249.8H83.7998V247.8H75.4278V249.8ZM84.7998 248.8V242.456H82.7998V248.8H84.7998ZM83.7998 241.456H59.8798V243.456H83.7998V241.456ZM88.4798 242.456V241.456H87.4798V242.456H88.4798ZM112.972 242.456H113.972V241.456H112.972V242.456ZM105.796 242.456V241.456H104.796V242.456H105.796ZM95.6558 242.456H96.6558V241.456H95.6558V242.456ZM87.4798 242.456V268.768H89.4798V242.456H87.4798ZM87.4798 268.768C87.4798 273.1 88.7531 276.345 91.1546 278.49C93.5358 280.617 96.8677 281.52 100.7 281.52V279.52C97.148 279.52 94.3699 278.681 92.487 276.999C90.6246 275.335 89.4798 272.704 89.4798 268.768H87.4798ZM100.7 281.52C104.532 281.52 107.875 280.617 110.269 278.492C112.684 276.348 113.972 273.103 113.972 268.768H111.972C111.972 272.701 110.816 275.332 108.941 276.997C107.044 278.681 104.252 279.52 100.7 279.52V281.52ZM113.972 268.768V242.456H111.972V268.768H113.972ZM112.972 241.456H105.796V243.456H112.972V241.456ZM104.796 242.456V268.716H106.796V242.456H104.796ZM104.796 268.716C104.796 270.381 104.42 271.457 103.817 272.116C103.229 272.758 102.268 273.176 100.7 273.176V275.176C102.615 275.176 104.202 274.658 105.292 273.467C106.366 272.293 106.796 270.639 106.796 268.716H104.796ZM100.7 273.176C99.1316 273.176 98.1875 272.759 97.6144 272.122C97.0225 271.465 96.6558 270.388 96.6558 268.716H94.6558C94.6558 270.632 95.0692 272.285 96.1283 273.461C97.2062 274.657 98.7841 275.176 100.7 275.176V273.176ZM96.6558 268.716V242.456H94.6558V268.716H96.6558ZM95.6558 241.456H88.4798V243.456H95.6558V241.456ZM144.397 280V281H145.905L145.318 279.611L144.397 280ZM137.325 263.256L136.972 262.32L135.999 262.687L136.404 263.645L137.325 263.256ZM119.853 242.456V241.456H118.853V242.456H119.853ZM119.853 280H118.853V281H119.853V280ZM127.029 280V281H128.029V280H127.029ZM127.029 264.712V263.712H126.029V264.712H127.029ZM130.461 264.712L131.387 264.334L131.133 263.712H130.461V264.712ZM136.701 280L135.775 280.378L136.029 281H136.701V280ZM127.029 248.384V247.384H126.029V248.384H127.029ZM127.029 258.784H126.029V259.784H127.029V258.784ZM145.318 279.611L138.246 262.867L136.404 263.645L143.476 280.389L145.318 279.611ZM137.677 264.192C139.884 263.361 141.491 261.99 142.531 260.154C143.559 258.339 143.993 256.138 143.993 253.688H141.993C141.993 255.918 141.595 257.747 140.79 259.169C139.997 260.57 138.77 261.643 136.972 262.32L137.677 264.192ZM143.993 253.688C143.993 249.958 142.904 246.847 140.534 244.682C138.18 242.531 134.715 241.456 130.253 241.456V243.456C134.423 243.456 137.328 244.461 139.185 246.158C141.028 247.841 141.993 250.346 141.993 253.688H143.993ZM130.253 241.456H119.853V243.456H130.253V241.456ZM118.853 242.456V280H120.853V242.456H118.853ZM119.853 281H127.029V279H119.853V281ZM128.029 280V264.712H126.029V280H128.029ZM127.029 265.712H130.461V263.712H127.029V265.712ZM129.535 265.09L135.775 280.378L137.627 279.622L131.387 264.334L129.535 265.09ZM136.701 281H144.397V279H136.701V281ZM127.029 249.384H130.721V247.384H127.029V249.384ZM130.721 249.384C132.157 249.384 133.139 249.737 133.765 250.339C134.383 250.935 134.817 251.933 134.817 253.584H136.817C136.817 251.595 136.289 249.993 135.152 248.899C134.022 247.811 132.457 247.384 130.721 247.384V249.384ZM134.817 253.584C134.817 255.235 134.383 256.233 133.765 256.829C133.139 257.431 132.157 257.784 130.721 257.784V259.784C132.457 259.784 134.022 259.357 135.152 258.269C136.289 257.175 136.817 255.573 136.817 253.584H134.817ZM130.721 257.784H127.029V259.784H130.721V257.784ZM128.029 258.784V248.384H126.029V258.784H128.029ZM168.923 280V281H169.923V280H168.923ZM168.923 273.656H169.923V272.656H168.923V273.656ZM155.923 273.656H154.923V274.656H155.923V273.656ZM155.923 263.776V262.776H154.923V263.776H155.923ZM165.439 263.776V264.776H166.439V263.776H165.439ZM165.439 257.432H166.439V256.432H165.439V257.432ZM155.923 257.432H154.923V258.432H155.923V257.432ZM155.923 248.8V247.8H154.923V248.8H155.923ZM168.403 248.8V249.8H169.403V248.8H168.403ZM168.403 242.456H169.403V241.456H168.403V242.456ZM148.747 242.456V241.456H147.747V242.456H148.747ZM148.747 280H147.747V281H148.747V280ZM169.923 280V273.656H167.923V280H169.923ZM168.923 272.656H155.923V274.656H168.923V272.656ZM156.923 273.656V263.776H154.923V273.656H156.923ZM155.923 264.776H165.439V262.776H155.923V264.776ZM166.439 263.776V257.432H164.439V263.776H166.439ZM165.439 256.432H155.923V258.432H165.439V256.432ZM156.923 257.432V248.8H154.923V257.432H156.923ZM155.923 249.8H168.403V247.8H155.923V249.8ZM169.403 248.8V242.456H167.403V248.8H169.403ZM168.403 241.456H148.747V243.456H168.403V241.456ZM147.747 242.456V280H149.747V242.456H147.747ZM148.747 281H168.923V279H148.747V281ZM174.695 248.8H173.695V249.8H174.695V248.8ZM187.435 248.8L188.306 249.292L189.149 247.8H187.435V248.8ZM173.239 273.916L172.369 273.424L172.239 273.653V273.916H173.239ZM173.239 280H172.239V281H173.239V280ZM195.807 280V281H196.807V280H195.807ZM195.807 273.656H196.807V272.656H195.807V273.656ZM181.299 273.656L180.428 273.165L179.587 274.656H181.299V273.656ZM195.495 248.488L196.366 248.979L196.495 248.751V248.488H195.495ZM195.495 242.456H196.495V241.456H195.495V242.456ZM174.695 242.456V241.456H173.695V242.456H174.695ZM174.695 249.8H187.435V247.8H174.695V249.8ZM186.565 248.308L172.369 273.424L174.11 274.408L188.306 249.292L186.565 248.308ZM172.239 273.916V280H174.239V273.916H172.239ZM173.239 281H195.807V279H173.239V281ZM196.807 280V273.656H194.807V280H196.807ZM195.807 272.656H181.299V274.656H195.807V272.656ZM182.17 274.147L196.366 248.979L194.624 247.997L180.428 273.165L182.17 274.147ZM196.495 248.488V242.456H194.495V248.488H196.495ZM195.495 241.456H174.695V243.456H195.495V241.456ZM173.695 242.456V248.8H175.695V242.456H173.695ZM211.979 250.568V249.568H211.186L211.005 250.341L211.979 250.568ZM212.083 250.568L213.058 250.344L212.88 249.568H212.083V250.568ZM215.567 265.752V266.752H216.823L216.542 265.528L215.567 265.752ZM208.443 265.752L207.469 265.525L207.184 266.752H208.443V265.752ZM205.115 280V281H205.891L206.084 280.249L205.115 280ZM207.143 272.096V271.096H206.368L206.175 271.847L207.143 272.096ZM217.075 272.096L218.05 271.872L217.871 271.096H217.075V272.096ZM218.895 280L217.921 280.224L218.1 281H218.895V280ZM225.759 280V281H227.029L226.732 279.766L225.759 280ZM216.711 242.456L217.684 242.222L217.499 241.456H216.711V242.456ZM207.507 242.456V241.456H206.725L206.537 242.215L207.507 242.456ZM198.199 280L197.229 279.759L196.921 281H198.199V280ZM211.979 251.568H212.083V249.568H211.979V251.568ZM211.109 250.792L214.593 265.976L216.542 265.528L213.058 250.344L211.109 250.792ZM215.567 264.752H208.443V266.752H215.567V264.752ZM209.417 265.979L212.953 250.795L211.005 250.341L207.469 265.525L209.417 265.979ZM206.084 280.249L208.112 272.345L206.175 271.847L204.147 279.751L206.084 280.249ZM207.143 273.096H217.075V271.096H207.143V273.096ZM216.101 272.32L217.921 280.224L219.87 279.776L218.05 271.872L216.101 272.32ZM218.895 281H225.759V279H218.895V281ZM226.732 279.766L217.684 242.222L215.739 242.69L224.787 280.234L226.732 279.766ZM216.711 241.456H207.507V243.456H216.711V241.456ZM206.537 242.215L197.229 279.759L199.17 280.241L208.478 242.697L206.537 242.215ZM198.199 281H205.115V279H198.199V281ZM237.338 280V281H238.338V280H237.338ZM237.338 272.616H238.338V271.616H237.338V272.616ZM229.954 272.616V271.616H228.954V272.616H229.954ZM229.954 280H228.954V281H229.954V280ZM238.338 280V272.616H236.338V280H238.338ZM237.338 271.616H229.954V273.616H237.338V271.616ZM228.954 272.616V280H230.954V272.616H228.954ZM229.954 281H237.338V279H229.954V281Z" fill="#216937"/>
</svg>
