<svg width="216" height="234" viewBox="0 0 216 234" fill="none" xmlns="http://www.w3.org/2000/svg">
<path d="M11.0197 63H10.1755V63.8442H11.0197V63ZM21.6569 63V63.8442H22.5011V63H21.6569ZM21.6569 1.20284H22.5011V0.358619H21.6569V1.20284ZM14.9875 1.20284V0.358619H14.573L14.3195 0.686644L14.9875 1.20284ZM1.64882 9.7295L1.48476 8.90137L0.804596 9.03612V9.7295H1.64882ZM1.64882 16.3989H0.804596V17.2431H1.64882V16.3989ZM11.0197 16.3989H11.8639V15.5546H11.0197V16.3989ZM11.0197 63.8442H21.6569V62.1558H11.0197V63.8442ZM22.5011 63V1.20284H20.8127V63H22.5011ZM21.6569 0.358619H14.9875V2.04707H21.6569V0.358619ZM14.3195 0.686644C12.836 2.6065 11.8272 4.16732 10.079 5.52813C8.35885 6.86713 5.87876 8.03086 1.48476 8.90137L1.81288 10.5576C6.36765 9.65527 9.12175 8.41296 11.1162 6.8605C13.0826 5.32984 14.2687 3.51377 15.6556 1.71904L14.3195 0.686644ZM0.804596 9.7295V16.3989H2.49304V9.7295H0.804596ZM1.64882 17.2431H11.0197V15.5546H1.64882V17.2431ZM10.1755 16.3989V63H11.8639V16.3989H10.1755ZM38.9351 38.3487L38.2523 37.8523L37.2777 39.1929H38.9351V38.3487ZM56.2417 14.5416V13.6974H55.8117L55.5589 14.0452L56.2417 14.5416ZM56.4106 14.5416H57.2548V13.6974H56.4106V14.5416ZM56.4106 38.3487V39.1929H57.2548V38.3487H56.4106ZM29.6487 37.1668L28.9686 36.6665L28.8045 36.8897V37.1668H29.6487ZM29.6487 46.9598H28.8045V47.804H29.6487V46.9598ZM56.4106 46.9598H57.2548V46.1155H56.4106V46.9598ZM56.4106 63H55.5663V63.8442H56.4106V63ZM67.0478 63V63.8442H67.892V63H67.0478ZM67.0478 46.9598V46.1155H66.2036V46.9598H67.0478ZM75.5744 46.9598V47.804H76.4187V46.9598H75.5744ZM75.5744 38.3487H76.4187V37.5045H75.5744V38.3487ZM67.0478 38.3487H66.2036V39.1929H67.0478V38.3487ZM67.0478 2.04706H67.892V1.20284H67.0478V2.04706ZM55.4819 2.04706V1.20284H55.0549L54.8019 1.54683L55.4819 2.04706ZM39.618 38.8451L56.9246 15.038L55.5589 14.0452L38.2523 37.8523L39.618 38.8451ZM56.2417 15.3858H56.4106V13.6974H56.2417V15.3858ZM55.5663 14.5416V38.3487H57.2548V14.5416H55.5663ZM56.4106 37.5045H38.9351V39.1929H56.4106V37.5045ZM28.8045 37.1668V46.9598H30.4929V37.1668H28.8045ZM29.6487 47.804H56.4106V46.1155H29.6487V47.804ZM55.5663 46.9598V63H57.2548V46.9598H55.5663ZM56.4106 63.8442H67.0478V62.1558H56.4106V63.8442ZM67.892 63V46.9598H66.2036V63H67.892ZM67.0478 47.804H75.5744V46.1155H67.0478V47.804ZM76.4187 46.9598V38.3487H74.7302V46.9598H76.4187ZM75.5744 37.5045H67.0478V39.1929H75.5744V37.5045ZM67.892 38.3487V2.04706H66.2036V38.3487H67.892ZM67.0478 1.20284H55.4819V2.89129H67.0478V1.20284ZM54.8019 1.54683L28.9686 36.6665L30.3287 37.667L56.162 2.5473L54.8019 1.54683ZM78.7541 42.7386C78.7541 49.3918 80.6135 54.8988 84.2621 58.7476C87.917 62.6032 93.2668 64.6884 100.029 64.6884V63C93.6204 63 88.7551 61.033 85.4874 57.586C82.2134 54.1323 80.4426 49.0866 80.4426 42.7386H78.7541ZM100.029 64.6884C106.79 64.6884 112.14 62.6032 115.795 58.7476C119.444 54.8988 121.303 49.3918 121.303 42.7386H119.615C119.615 49.0866 117.844 54.1323 114.57 57.586C111.302 61.033 106.437 63 100.029 63V64.6884ZM121.303 42.7386V22.3084H119.615V42.7386H121.303ZM121.303 22.3084C121.303 15.6553 119.444 10.1482 115.795 6.29944C112.14 2.44391 106.79 0.358619 100.029 0.358619V2.04707C106.437 2.04707 111.302 4.01404 114.57 7.46105C117.844 10.9148 119.615 15.9605 119.615 22.3084H121.303ZM100.029 0.358619C93.2668 0.358619 87.917 2.44391 84.2621 6.29944C80.6135 10.1482 78.7541 15.6553 78.7541 22.3084H80.4426C80.4426 15.9605 82.2134 10.9148 85.4874 7.46105C88.7551 4.01404 93.6204 2.04707 100.029 2.04707V0.358619ZM78.7541 22.3084V42.7386H80.4426V22.3084H78.7541ZM91.5863 23.5748C91.5863 18.6785 92.349 15.7385 93.7053 14.0198C95.0152 12.3601 97.0221 11.6712 100.029 11.6712V9.98277C96.7877 9.98277 94.1515 10.729 92.3799 12.9738C90.6548 15.1598 89.8979 18.5936 89.8979 23.5748H91.5863ZM100.029 11.6712C103.035 11.6712 105.042 12.3601 106.352 14.0198C107.708 15.7385 108.471 18.6785 108.471 23.5748H110.159C110.159 18.5936 109.402 15.1598 107.677 12.9738C105.906 10.729 103.269 9.98277 100.029 9.98277V11.6712ZM108.471 23.5748V41.4723H110.159V23.5748H108.471ZM108.471 41.4723C108.471 46.3686 107.708 49.3086 106.352 51.0272C105.042 52.6869 103.035 53.3759 100.029 53.3759V55.0643C103.269 55.0643 105.906 54.318 107.677 52.0732C109.402 49.8873 110.159 46.4534 110.159 41.4723H108.471ZM100.029 53.3759C97.0221 53.3759 95.0152 52.6869 93.7053 51.0272C92.349 49.3086 91.5863 46.3686 91.5863 41.4723H89.8979C89.8979 46.4534 90.6548 49.8873 92.3799 52.0732C94.1515 54.318 96.7877 55.0643 100.029 55.0643V53.3759ZM91.5863 41.4723V23.5748H89.8979V41.4723H91.5863ZM125.665 42.7386C125.665 49.3918 127.524 54.8988 131.173 58.7476C134.827 62.6032 140.177 64.6884 146.939 64.6884V63C140.531 63 135.666 61.033 132.398 57.586C129.124 54.1323 127.353 49.0866 127.353 42.7386H125.665ZM146.939 64.6884C153.701 64.6884 159.051 62.6032 162.706 58.7476C166.354 54.8988 168.213 49.3918 168.213 42.7386H166.525C166.525 49.0866 164.754 54.1323 161.48 57.586C158.212 61.033 153.347 63 146.939 63V64.6884ZM168.213 42.7386V22.3084H166.525V42.7386H168.213ZM168.213 22.3084C168.213 15.6553 166.354 10.1482 162.706 6.29944C159.051 2.44391 153.701 0.358619 146.939 0.358619V2.04707C153.347 2.04707 158.212 4.01404 161.48 7.46105C164.754 10.9148 166.525 15.9605 166.525 22.3084H168.213ZM146.939 0.358619C140.177 0.358619 134.827 2.44391 131.173 6.29944C127.524 10.1482 125.665 15.6553 125.665 22.3084H127.353C127.353 15.9605 129.124 10.9148 132.398 7.46105C135.666 4.01404 140.531 2.04707 146.939 2.04707V0.358619ZM125.665 22.3084V42.7386H127.353V22.3084H125.665ZM138.497 23.5748C138.497 18.6785 139.259 15.7385 140.616 14.0198C141.926 12.3601 143.933 11.6712 146.939 11.6712V9.98277C143.698 9.98277 141.062 10.729 139.29 12.9738C137.565 15.1598 136.808 18.5936 136.808 23.5748H138.497ZM146.939 11.6712C149.945 11.6712 151.952 12.3601 153.262 14.0198C154.619 15.7385 155.381 18.6785 155.381 23.5748H157.07C157.07 18.5936 156.313 15.1598 154.588 12.9738C152.816 10.729 150.18 9.98277 146.939 9.98277V11.6712ZM155.381 23.5748V41.4723H157.07V23.5748H155.381ZM155.381 41.4723C155.381 46.3686 154.619 49.3086 153.262 51.0272C151.952 52.6869 149.945 53.3759 146.939 53.3759V55.0643C150.18 55.0643 152.816 54.318 154.588 52.0732C156.313 49.8873 157.07 46.4534 157.07 41.4723H155.381ZM146.939 53.3759C143.933 53.3759 141.926 52.6869 140.616 51.0272C139.259 49.3086 138.497 46.3686 138.497 41.4723H136.808C136.808 46.4534 137.565 49.8873 139.29 52.0732C141.062 54.318 143.698 55.0643 146.939 55.0643V53.3759ZM138.497 41.4723V23.5748H136.808V41.4723H138.497ZM172.575 42.7386C172.575 49.3918 174.434 54.8988 178.083 58.7476C181.738 62.6032 187.088 64.6884 193.849 64.6884V63C187.441 63 182.576 61.033 179.308 57.586C176.034 54.1323 174.263 49.0866 174.263 42.7386H172.575ZM193.849 64.6884C200.611 64.6884 205.961 62.6032 209.616 58.7476C213.265 54.8988 215.124 49.3918 215.124 42.7386H213.435C213.435 49.0866 211.665 54.1323 208.391 57.586C205.123 61.033 200.258 63 193.849 63V64.6884ZM215.124 42.7386V22.3084H213.435V42.7386H215.124ZM215.124 22.3084C215.124 15.6553 213.265 10.1482 209.616 6.29944C205.961 2.44391 200.611 0.358619 193.849 0.358619V2.04707C200.258 2.04707 205.123 4.01404 208.391 7.46105C211.665 10.9148 213.435 15.9605 213.435 22.3084H215.124ZM193.849 0.358619C187.088 0.358619 181.738 2.44391 178.083 6.29944C174.434 10.1482 172.575 15.6553 172.575 22.3084H174.263C174.263 15.9605 176.034 10.9148 179.308 7.46105C182.576 4.01404 187.441 2.04707 193.849 2.04707V0.358619ZM172.575 22.3084V42.7386H174.263V22.3084H172.575ZM185.407 23.5748C185.407 18.6785 186.17 15.7385 187.526 14.0198C188.836 12.3601 190.843 11.6712 193.849 11.6712V9.98277C190.609 9.98277 187.972 10.729 186.201 12.9738C184.476 15.1598 183.719 18.5936 183.719 23.5748H185.407ZM193.849 11.6712C196.856 11.6712 198.863 12.3601 200.173 14.0198C201.529 15.7385 202.292 18.6785 202.292 23.5748H203.98C203.98 18.5936 203.223 15.1598 201.498 12.9738C199.727 10.729 197.09 9.98277 193.849 9.98277V11.6712ZM202.292 23.5748V41.4723H203.98V23.5748H202.292ZM202.292 41.4723C202.292 46.3686 201.529 49.3086 200.173 51.0272C198.863 52.6869 196.856 53.3759 193.849 53.3759V55.0643C197.09 55.0643 199.727 54.318 201.498 52.0732C203.223 49.8873 203.98 46.4534 203.98 41.4723H202.292ZM193.849 53.3759C190.843 53.3759 188.836 52.6869 187.526 51.0272C186.17 49.3086 185.407 46.3686 185.407 41.4723H183.719C183.719 46.4534 184.476 49.8873 186.201 52.0732C187.972 54.318 190.609 55.0643 193.849 55.0643V53.3759ZM185.407 41.4723V23.5748H183.719V41.4723H185.407ZM53.1181 99.2169V98.3727H52.4479L52.2959 99.0255L53.1181 99.2169ZM53.2869 99.2169L54.1098 99.0282L53.9594 98.3727H53.2869V99.2169ZM58.9432 123.868V124.713H60.0031L59.7661 123.679L58.9432 123.868ZM47.3774 123.868L46.5551 123.677L46.314 124.713H47.3774V123.868ZM41.9743 147V147.844H42.6293L42.7921 147.21L41.9743 147ZM45.2668 134.168V133.324H44.6119L44.4491 133.958L45.2668 134.168ZM61.3915 134.168L62.2142 133.978L62.0634 133.324H61.3915V134.168ZM64.3463 147L63.5236 147.189L63.6743 147.844H64.3463V147ZM75.49 147V147.844H76.5619L76.3107 146.802L75.49 147ZM60.8005 86.0471L61.6212 85.8493L61.4655 85.2028H60.8005V86.0471ZM45.8578 86.0471V85.2028H45.1973L45.0384 85.8439L45.8578 86.0471ZM30.7462 147L29.9268 146.797L29.6671 147.844H30.7462V147ZM53.7935 70.2601V69.4159H53.3303L53.0814 69.8065L53.7935 70.2601ZM45.9422 82.5858L45.2301 82.1322L44.4035 83.43H45.9422V82.5858ZM54.4689 82.5858V83.43H54.8168L55.0638 83.1847L54.4689 82.5858ZM66.8789 70.2601L67.4738 70.8591L68.9269 69.4159H66.8789V70.2601ZM53.1181 100.061H53.2869V98.3727H53.1181V100.061ZM52.4641 99.4058L58.1204 124.057L59.7661 123.679L54.1098 99.0282L52.4641 99.4058ZM58.9432 123.024H47.3774V124.713H58.9432V123.024ZM48.1996 124.06L53.9403 99.4084L52.2959 99.0255L46.5551 123.677L48.1996 124.06ZM42.7921 147.21L46.0845 134.378L44.4491 133.958L41.1566 146.79L42.7921 147.21ZM45.2668 135.012H61.3915V133.324H45.2668V135.012ZM60.5688 134.357L63.5236 147.189L65.169 146.811L62.2142 133.978L60.5688 134.357ZM64.3463 147.844H75.49V146.156H64.3463V147.844ZM76.3107 146.802L61.6212 85.8493L59.9798 86.2449L74.6693 147.198L76.3107 146.802ZM60.8005 85.2028H45.8578V86.8913H60.8005V85.2028ZM45.0384 85.8439L29.9268 146.797L31.5656 147.203L46.6772 86.2502L45.0384 85.8439ZM30.7462 147.844H41.9743V146.156H30.7462V147.844ZM53.0814 69.8065L45.2301 82.1322L46.6542 83.0393L54.5055 70.7136L53.0814 69.8065ZM45.9422 83.43H54.4689V81.7415H45.9422V83.43ZM55.0638 83.1847L67.4738 70.8591L66.284 69.6611L53.8739 81.9868L55.0638 83.1847ZM66.8789 69.4159H53.7935V71.1043H66.8789V69.4159ZM121.641 147V147.844H122.914L122.418 146.672L121.641 147ZM110.159 119.816L109.862 119.026L109.04 119.335L109.382 120.144L110.159 119.816ZM81.7933 86.0471V85.2028H80.9491V86.0471H81.7933ZM81.7933 147H80.9491V147.844H81.7933V147ZM93.4436 147V147.844H94.2878V147H93.4436ZM93.4436 122.18V121.336H92.5994V122.18H93.4436ZM99.0155 122.18L99.7971 121.861L99.5827 121.336H99.0155V122.18ZM109.146 147L108.365 147.319L108.579 147.844H109.146V147ZM93.4436 95.6712V94.827H92.5994V95.6712H93.4436ZM93.4436 112.556H92.5994V113.4H93.4436V112.556ZM122.418 146.672L110.937 119.488L109.382 120.144L120.863 147.328L122.418 146.672ZM110.457 120.606C113.88 119.317 116.341 117.207 117.933 114.396C119.515 111.603 120.205 108.174 120.205 104.282H118.517C118.517 107.988 117.857 111.103 116.463 113.564C115.079 116.009 112.939 117.867 109.862 119.026L110.457 120.606ZM120.205 104.282C120.205 98.3776 118.486 93.5629 114.844 90.2359C111.215 86.9204 105.808 85.2028 98.6778 85.2028V86.8913C105.562 86.8913 110.496 88.5506 113.705 91.4824C116.902 94.4026 118.517 98.7055 118.517 104.282H120.205ZM98.6778 85.2028H81.7933V86.8913H98.6778V85.2028ZM80.9491 86.0471V147H82.6376V86.0471H80.9491ZM81.7933 147.844H93.4436V146.156H81.7933V147.844ZM94.2878 147V122.18H92.5994V147H94.2878ZM93.4436 123.024H99.0155V121.336H93.4436V123.024ZM98.2339 122.499L108.365 147.319L109.928 146.681L99.7971 121.861L98.2339 122.499ZM109.146 147.844H121.641V146.156H109.146V147.844ZM93.4436 96.5154H99.4376V94.827H93.4436V96.5154ZM99.4376 96.5154C101.886 96.5154 103.708 97.1175 104.92 98.2844C106.126 99.4455 106.867 101.301 106.867 104.113H108.555C108.555 101.016 107.735 98.6508 106.091 97.0681C104.453 95.4912 102.139 94.827 99.4376 94.827V96.5154ZM106.867 104.113C106.867 106.926 106.126 108.781 104.92 109.943C103.708 111.109 101.886 111.711 99.4376 111.711V113.4C102.139 113.4 104.453 112.736 106.091 111.159C107.735 109.576 108.555 107.211 108.555 104.113H106.867ZM99.4376 111.711H93.4436V113.4H99.4376V111.711ZM94.2878 112.556V95.6712H92.5994V112.556H94.2878ZM140.354 147L139.536 147.21L139.699 147.844H140.354V147ZM153.608 147V147.844H154.264L154.426 147.208L153.608 147ZM169.142 86.0471L169.96 86.2555L170.228 85.2028H169.142V86.0471ZM157.745 86.0471V85.2028H157.082L156.925 85.8468L157.745 86.0471ZM147.108 129.609V130.453H147.771L147.928 129.809L147.108 129.609ZM146.939 129.609L146.119 129.811L146.277 130.453H146.939V129.609ZM136.217 86.0471L137.037 85.8453L136.879 85.2028H136.217V86.0471ZM124.736 86.0471V85.2028H123.648L123.918 86.2566L124.736 86.0471ZM140.354 147.844H153.608V146.156H140.354V147.844ZM154.426 147.208L169.96 86.2555L168.324 85.8386L152.79 146.792L154.426 147.208ZM169.142 85.2028H157.745V86.8913H169.142V85.2028ZM156.925 85.8468L146.288 129.409L147.928 129.809L158.565 86.2473L156.925 85.8468ZM147.108 128.765H146.939V130.453H147.108V128.765ZM147.759 129.407L137.037 85.8453L135.398 86.2488L146.119 129.811L147.759 129.407ZM136.217 85.2028H124.736V86.8913H136.217V85.2028ZM123.918 86.2566L139.536 147.21L141.172 146.79L125.554 85.8375L123.918 86.2566ZM173.757 127.414C173.757 135.07 175.781 140.435 179.402 143.876C183.014 147.31 188.073 148.688 193.849 148.688V147C188.314 147 183.748 145.677 180.565 142.652C177.39 139.635 175.445 134.785 175.445 127.414H173.757ZM193.849 148.688C199.626 148.688 204.685 147.31 208.297 143.876C211.918 140.435 213.942 135.07 213.942 127.414H212.254C212.254 134.785 210.309 139.635 207.134 142.652C203.951 145.677 199.385 147 193.849 147V148.688ZM213.942 127.414V105.633H212.254V127.414H213.942ZM213.942 105.633C213.942 97.9772 211.918 92.6117 208.297 89.1708C204.685 85.7375 199.626 84.3586 193.849 84.3586V86.0471C199.385 86.0471 203.951 87.3697 207.134 90.3947C210.309 93.4121 212.254 98.2618 212.254 105.633H213.942ZM193.849 84.3586C188.073 84.3586 183.014 85.7375 179.402 89.1708C175.781 92.6117 173.757 97.9772 173.757 105.633H175.445C175.445 98.2618 177.39 93.4121 180.565 90.3947C183.748 87.3697 188.314 86.0471 193.849 86.0471V84.3586ZM173.757 105.633V127.414H175.445V105.633H173.757ZM187.096 104.113C187.096 100.836 187.816 98.9537 188.904 97.8746C189.99 96.7972 191.616 96.3466 193.849 96.3466V94.6581C191.439 94.6581 189.267 95.1362 187.715 96.6759C186.164 98.2139 185.407 100.638 185.407 104.113H187.096ZM193.849 96.3466C196.083 96.3466 197.709 96.7972 198.795 97.8746C199.883 98.9537 200.603 100.836 200.603 104.113H202.292C202.292 100.638 201.535 98.2139 199.984 96.6759C198.432 95.1362 196.26 94.6581 193.849 94.6581V96.3466ZM200.603 104.113V128.934H202.292V104.113H200.603ZM200.603 128.934C200.603 132.212 199.883 134.093 198.795 135.172C197.709 136.25 196.083 136.7 193.849 136.7V138.389C196.26 138.389 198.432 137.911 199.984 136.371C201.535 134.833 202.292 132.409 202.292 128.934H200.603ZM193.849 136.7C191.616 136.7 189.99 136.25 188.904 135.172C187.816 134.093 187.096 132.212 187.096 128.934H185.407C185.407 132.409 186.164 134.833 187.715 136.371C189.267 137.911 191.439 138.389 193.849 138.389V136.7ZM187.096 128.934V104.113H185.407V128.934H187.096ZM126.34 232V232.844H127.613L127.118 231.672L126.34 232ZM114.859 204.816L114.561 204.026L113.739 204.335L114.081 205.144L114.859 204.816ZM86.4926 171.047V170.203H85.6484V171.047H86.4926ZM86.4926 232H85.6484V232.844H86.4926V232ZM98.1429 232V232.844H98.9871V232H98.1429ZM98.1429 207.18V206.336H97.2987V207.18H98.1429ZM103.715 207.18L104.496 206.861L104.282 206.336H103.715V207.18ZM113.845 232L113.064 232.319L113.278 232.844H113.845V232ZM98.1429 180.671V179.827H97.2987V180.671H98.1429ZM98.1429 197.556H97.2987V198.4H98.1429V197.556ZM127.118 231.672L115.636 204.488L114.081 205.144L125.562 232.328L127.118 231.672ZM115.156 205.606C118.579 204.317 121.04 202.207 122.632 199.396C124.214 196.603 124.905 193.174 124.905 189.282H123.216C123.216 192.988 122.556 196.103 121.163 198.564C119.778 201.009 117.639 202.867 114.561 204.026L115.156 205.606ZM124.905 189.282C124.905 183.378 123.185 178.563 119.544 175.236C115.914 171.92 110.507 170.203 103.377 170.203V171.891C110.261 171.891 115.196 173.551 118.405 176.482C121.601 179.403 123.216 183.706 123.216 189.282H124.905ZM103.377 170.203H86.4926V171.891H103.377V170.203ZM85.6484 171.047V232H87.3369V171.047H85.6484ZM86.4926 232.844H98.1429V231.156H86.4926V232.844ZM98.9871 232V207.18H97.2987V232H98.9871ZM98.1429 208.024H103.715V206.336H98.1429V208.024ZM102.933 207.499L113.064 232.319L114.627 231.681L104.496 206.861L102.933 207.499ZM113.845 232.844H126.34V231.156H113.845V232.844ZM98.1429 181.515H104.137V179.827H98.1429V181.515ZM104.137 181.515C106.585 181.515 108.407 182.118 109.619 183.284C110.825 184.445 111.566 186.301 111.566 189.113H113.255C113.255 186.016 112.434 183.651 110.79 182.068C109.153 180.491 106.838 179.827 104.137 179.827V181.515ZM111.566 189.113C111.566 191.926 110.825 193.781 109.619 194.943C108.407 196.109 106.585 196.711 104.137 196.711V198.4C106.838 198.4 109.153 197.736 110.79 196.159C112.434 194.576 113.255 192.211 113.255 189.113H111.566ZM104.137 196.711H98.1429V198.4H104.137V196.711ZM98.9871 197.556V180.671H97.2987V197.556H98.9871ZM166.159 232V232.844H167.003V232H166.159ZM166.159 221.7H167.003V220.856H166.159V221.7ZM145.053 221.7H144.209V222.545H145.053V221.7ZM145.053 205.66V204.816H144.209V205.66H145.053ZM160.503 205.66V206.504H161.347V205.66H160.503ZM160.503 195.361H161.347V194.516H160.503V195.361ZM145.053 195.361H144.209V196.205H145.053V195.361ZM145.053 181.347V180.502H144.209V181.347H145.053ZM165.315 181.347V182.191H166.159V181.347H165.315ZM165.315 171.047H166.159V170.203H165.315V171.047ZM133.403 171.047V170.203H132.559V171.047H133.403ZM133.403 232H132.559V232.844H133.403V232ZM167.003 232V221.7H165.315V232H167.003ZM166.159 220.856H145.053V222.545H166.159V220.856ZM145.898 221.7V205.66H144.209V221.7H145.898ZM145.053 206.504H160.503V204.816H145.053V206.504ZM161.347 205.66V195.361H159.658V205.66H161.347ZM160.503 194.516H145.053V196.205H160.503V194.516ZM145.898 195.361V181.347H144.209V195.361H145.898ZM145.053 182.191H165.315V180.502H145.053V182.191ZM166.159 181.347V171.047H164.471V181.347H166.159ZM165.315 170.203H133.403V171.891H165.315V170.203ZM132.559 171.047V232H134.247V171.047H132.559ZM133.403 232.844H166.159V231.156H133.403V232.844ZM211.831 184.977L212.067 185.788L212.837 185.564L212.653 184.783L211.831 184.977ZM184.563 213.258L185.393 213.106L185.236 212.251L184.387 212.433L184.563 213.258ZM173.082 215.706L172.906 214.881L172.042 215.065L172.265 215.919L173.082 215.706ZM201.363 188.016L200.563 188.286L200.822 189.052L201.598 188.827L201.363 188.016ZM212.653 184.783C211.606 180.331 209.433 176.466 206.136 173.713C202.833 170.955 198.456 169.359 193.09 169.359V171.047C198.107 171.047 202.088 172.532 205.054 175.009C208.025 177.49 210.031 181.011 211.01 185.17L212.653 184.783ZM193.09 169.359C186.904 169.359 182.089 171.047 178.817 174.196C175.542 177.347 173.926 181.854 173.926 187.256H175.614C175.614 182.19 177.122 178.17 179.988 175.412C182.858 172.651 187.202 171.047 193.09 171.047V169.359ZM173.926 187.256C173.926 196.323 180.892 200.844 187.361 204.436C190.665 206.27 193.821 207.851 196.191 209.695C198.537 211.521 199.928 213.466 199.928 215.96H201.616C201.616 212.713 199.757 210.331 197.228 208.363C194.722 206.413 191.378 204.734 188.181 202.959C181.649 199.333 175.614 195.243 175.614 187.256H173.926ZM199.928 215.96C199.928 218.038 199.221 219.625 198.117 220.693C197.008 221.765 195.434 222.376 193.596 222.376V224.064C195.811 224.064 197.825 223.324 199.291 221.906C200.761 220.484 201.616 218.44 201.616 215.96H199.928ZM193.596 222.376C190.633 222.376 186.688 220.147 185.393 213.106L183.733 213.411C185.139 221.059 189.636 224.064 193.596 224.064V222.376ZM184.387 212.433L172.906 214.881L173.258 216.532L184.739 214.084L184.387 212.433ZM172.265 215.919C173.859 222.04 176.554 226.498 180.135 229.425C183.72 232.355 188.119 233.688 193.005 233.688V232C188.436 232 184.435 230.759 181.203 228.117C177.967 225.472 175.427 221.361 173.899 215.494L172.265 215.919ZM193.005 233.688C199.282 233.688 204.358 231.912 207.874 228.697C211.398 225.476 213.267 220.889 213.267 215.453H211.578C211.578 220.486 209.859 224.595 206.735 227.451C203.602 230.315 198.97 232 193.005 232V233.688ZM213.267 215.453C213.267 205.418 206.378 200.263 199.839 196.537C196.502 194.635 193.364 193.156 190.957 191.522C188.555 189.89 187.265 188.343 187.265 186.496H185.576C185.576 189.251 187.536 191.239 190.009 192.918C192.477 194.595 195.841 196.202 199.003 198.004C205.466 201.687 211.578 206.409 211.578 215.453H213.267ZM187.265 186.496C187.265 184.578 187.792 183.142 188.691 182.19C189.583 181.246 190.944 180.671 192.836 180.671V178.983C190.592 178.983 188.745 179.674 187.464 181.031C186.189 182.38 185.576 184.278 185.576 186.496H187.265ZM192.836 180.671C194.668 180.671 196.097 181.214 197.306 182.377C198.547 183.571 199.611 185.47 200.563 188.286L202.163 187.745C201.174 184.821 200 182.626 198.476 181.16C196.921 179.664 195.057 178.983 192.836 178.983V180.671ZM201.598 188.827L212.067 185.788L211.596 184.166L201.128 187.205L201.598 188.827Z" fill="#216937"/>
</svg>
