<svg width="368" height="170" viewBox="0 0 368 170" fill="none" xmlns="http://www.w3.org/2000/svg">
<path d="M134.624 72H133.66V72.9633H134.624V72ZM146.762 72V72.9633H147.725V72H146.762ZM146.762 1.483H147.725V0.519658H146.762V1.483ZM139.151 1.483V0.519658H138.678L138.389 0.893969L139.151 1.483ZM123.93 11.2128L123.743 10.2678L122.967 10.4216V11.2128H123.93ZM123.93 18.8232H122.967V19.7866H123.93V18.8232ZM134.624 18.8232H135.587V17.8599H134.624V18.8232ZM134.624 72.9633H146.762V71.0367H134.624V72.9633ZM147.725 72V1.483H145.798V72H147.725ZM146.762 0.519658H139.151V2.44635H146.762V0.519658ZM138.389 0.893969C136.696 3.08472 135.545 4.86579 133.55 6.41861C131.587 7.94655 128.757 9.27449 123.743 10.2678L124.118 12.1578C129.315 11.1281 132.458 9.71051 134.734 7.93898C136.977 6.19234 138.331 4.12002 139.914 2.07204L138.389 0.893969ZM122.967 11.2128V18.8232H124.894V11.2128H122.967ZM123.93 19.7866H134.624V17.8599H123.93V19.7866ZM133.66 18.8232V72H135.587V18.8232H133.66ZM166.478 43.8703L165.699 43.3038L164.587 44.8336H166.478V43.8703ZM186.227 16.7039V15.7405H185.736L185.447 16.1374L186.227 16.7039ZM186.419 16.7039H187.383V15.7405H186.419V16.7039ZM186.419 43.8703V44.8336H187.383V43.8703H186.419ZM155.881 42.5216L155.105 41.9508L154.918 42.2054V42.5216H155.881ZM155.881 53.6964H154.918V54.6598H155.881V53.6964ZM186.419 53.6964H187.383V52.7331H186.419V53.6964ZM186.419 72H185.456V72.9633H186.419V72ZM198.557 72V72.9633H199.521V72H198.557ZM198.557 53.6964V52.7331H197.594V53.6964H198.557ZM208.287 53.6964V54.6598H209.251V53.6964H208.287ZM208.287 43.8703H209.251V42.9069H208.287V43.8703ZM198.557 43.8703H197.594V44.8336H198.557V43.8703ZM198.557 2.44635H199.521V1.483H198.557V2.44635ZM185.36 2.44635V1.483H184.872L184.584 1.87553L185.36 2.44635ZM167.257 44.4367L187.006 17.2703L185.447 16.1374L165.699 43.3038L167.257 44.4367ZM186.227 17.6672H186.419V15.7405H186.227V17.6672ZM185.456 16.7039V43.8703H187.383V16.7039H185.456ZM186.419 42.9069H166.478V44.8336H186.419V42.9069ZM154.918 42.5216V53.6964H156.844V42.5216H154.918ZM155.881 54.6598H186.419V52.7331H155.881V54.6598ZM185.456 53.6964V72H187.383V53.6964H185.456ZM186.419 72.9633H198.557V71.0367H186.419V72.9633ZM199.521 72V53.6964H197.594V72H199.521ZM198.557 54.6598H208.287V52.7331H198.557V54.6598ZM209.251 53.6964V43.8703H207.324V53.6964H209.251ZM208.287 42.9069H198.557V44.8336H208.287V42.9069ZM199.521 43.8703V2.44635H197.594V43.8703H199.521ZM198.557 1.483H185.36V3.4097H198.557V1.483ZM184.584 1.87553L155.105 41.9508L156.657 43.0924L186.136 3.01717L184.584 1.87553ZM211.916 48.8797C211.916 56.4716 214.037 62.7557 218.201 67.1476C222.371 71.5472 228.476 73.9267 236.192 73.9267V72C228.88 72 223.328 69.7555 219.599 65.8221C215.863 61.881 213.842 56.1233 213.842 48.8797H211.916ZM236.192 73.9267C243.908 73.9267 250.012 71.5472 254.183 67.1476C258.346 62.7557 260.468 56.4716 260.468 48.8797H258.542C258.542 56.1233 256.521 61.881 252.785 65.8221C249.056 69.7555 243.504 72 236.192 72V73.9267ZM260.468 48.8797V25.5667H258.542V48.8797H260.468ZM260.468 25.5667C260.468 17.9748 258.346 11.6906 254.183 7.29875C250.012 2.8992 243.908 0.519658 236.192 0.519658V2.44635C243.504 2.44635 249.056 4.69088 252.785 8.62427C256.521 12.5653 258.542 18.323 258.542 25.5667H260.468ZM236.192 0.519658C228.476 0.519658 222.371 2.8992 218.201 7.29875C214.037 11.6906 211.916 17.9748 211.916 25.5667H213.842C213.842 18.323 215.863 12.5653 219.599 8.62427C223.328 4.69088 228.88 2.44635 236.192 2.44635V0.519658ZM211.916 25.5667V48.8797H213.842V25.5667H211.916ZM226.558 27.0117C226.558 21.4245 227.429 18.0697 228.976 16.1085C230.471 14.2146 232.761 13.4285 236.192 13.4285V11.5018C232.494 11.5018 229.486 12.3534 227.464 14.9149C225.495 17.4093 224.632 21.3277 224.632 27.0117H226.558ZM236.192 13.4285C239.623 13.4285 241.913 14.2146 243.407 16.1085C244.955 18.0697 245.825 21.4245 245.825 27.0117H247.752C247.752 21.3277 246.888 17.4093 244.92 14.9149C242.898 12.3534 239.89 11.5018 236.192 11.5018V13.4285ZM245.825 27.0117V47.4347H247.752V27.0117H245.825ZM245.825 47.4347C245.825 53.0218 244.955 56.3767 243.407 58.3378C241.913 60.2317 239.623 61.0178 236.192 61.0178V62.9445C239.89 62.9445 242.898 62.093 244.92 59.5314C246.888 57.037 247.752 53.1186 247.752 47.4347H245.825ZM236.192 61.0178C232.761 61.0178 230.471 60.2317 228.976 58.3378C227.429 56.3767 226.558 53.0218 226.558 47.4347H224.632C224.632 53.1186 225.495 57.037 227.464 59.5314C229.486 62.093 232.494 62.9445 236.192 62.9445V61.0178ZM226.558 47.4347V27.0117H224.632V47.4347H226.558ZM265.445 48.8797C265.445 56.4716 267.567 62.7557 271.73 67.1476C275.901 71.5472 282.006 73.9267 289.722 73.9267V72C282.409 72 276.857 69.7555 273.129 65.8221C269.393 61.881 267.372 56.1233 267.372 48.8797H265.445ZM289.722 73.9267C297.437 73.9267 303.542 71.5472 307.713 67.1476C311.876 62.7557 313.998 56.4716 313.998 48.8797H312.071C312.071 56.1233 310.051 61.881 306.315 65.8221C302.586 69.7555 297.034 72 289.722 72V73.9267ZM313.998 48.8797V25.5667H312.071V48.8797H313.998ZM313.998 25.5667C313.998 17.9748 311.876 11.6906 307.713 7.29875C303.542 2.8992 297.437 0.519658 289.722 0.519658V2.44635C297.034 2.44635 302.586 4.69088 306.315 8.62427C310.051 12.5653 312.071 18.323 312.071 25.5667H313.998ZM289.722 0.519658C282.006 0.519658 275.901 2.8992 271.73 7.29875C267.567 11.6906 265.445 17.9748 265.445 25.5667H267.372C267.372 18.323 269.393 12.5653 273.129 8.62427C276.857 4.69088 282.409 2.44635 289.722 2.44635V0.519658ZM265.445 25.5667V48.8797H267.372V25.5667H265.445ZM280.088 27.0117C280.088 21.4245 280.958 18.0697 282.506 16.1085C284.001 14.2146 286.291 13.4285 289.722 13.4285V11.5018C286.023 11.5018 283.015 12.3534 280.994 14.9149C279.025 17.4093 278.161 21.3277 278.161 27.0117H280.088ZM289.722 13.4285C293.152 13.4285 295.442 14.2146 296.937 16.1085C298.485 18.0697 299.355 21.4245 299.355 27.0117H301.282C301.282 21.3277 300.418 17.4093 298.45 14.9149C296.428 12.3534 293.42 11.5018 289.722 11.5018V13.4285ZM299.355 27.0117V47.4347H301.282V27.0117H299.355ZM299.355 47.4347C299.355 53.0218 298.485 56.3767 296.937 58.3378C295.442 60.2317 293.152 61.0178 289.722 61.0178V62.9445C293.42 62.9445 296.428 62.093 298.45 59.5314C300.418 57.037 301.282 53.1186 301.282 47.4347H299.355ZM289.722 61.0178C286.291 61.0178 284.001 60.2317 282.506 58.3378C280.958 56.3767 280.088 53.0218 280.088 47.4347H278.161C278.161 53.1186 279.025 57.037 280.994 59.5314C283.015 62.093 286.023 62.9445 289.722 62.9445V61.0178ZM280.088 47.4347V27.0117H278.161V47.4347H280.088ZM318.975 48.8797C318.975 56.4716 321.097 62.7557 325.26 67.1476C329.431 71.5472 335.535 73.9267 343.251 73.9267V72C335.939 72 330.387 69.7555 326.658 65.8221C322.922 61.881 320.902 56.1233 320.902 48.8797H318.975ZM343.251 73.9267C350.967 73.9267 357.072 71.5472 361.243 67.1476C365.406 62.7557 367.528 56.4716 367.528 48.8797H365.601C365.601 56.1233 363.58 61.881 359.844 65.8221C356.116 69.7555 350.564 72 343.251 72V73.9267ZM367.528 48.8797V25.5667H365.601V48.8797H367.528ZM367.528 25.5667C367.528 17.9748 365.406 11.6906 361.243 7.29875C357.072 2.8992 350.967 0.519658 343.251 0.519658V2.44635C350.564 2.44635 356.116 4.69088 359.844 8.62427C363.58 12.5653 365.601 18.323 365.601 25.5667H367.528ZM343.251 0.519658C335.535 0.519658 329.431 2.8992 325.26 7.29875C321.097 11.6906 318.975 17.9748 318.975 25.5667H320.902C320.902 18.323 322.922 12.5653 326.658 8.62427C330.387 4.69088 335.939 2.44635 343.251 2.44635V0.519658ZM318.975 25.5667V48.8797H320.902V25.5667H318.975ZM333.618 27.0117C333.618 21.4245 334.488 18.0697 336.036 16.1085C337.53 14.2146 339.821 13.4285 343.251 13.4285V11.5018C339.553 11.5018 336.545 12.3534 334.523 14.9149C332.555 17.4093 331.691 21.3277 331.691 27.0117H333.618ZM343.251 13.4285C346.682 13.4285 348.972 14.2146 350.467 16.1085C352.014 18.0697 352.885 21.4245 352.885 27.0117H354.811C354.811 21.3277 353.948 17.4093 351.979 14.9149C349.958 12.3534 346.949 11.5018 343.251 11.5018V13.4285ZM352.885 27.0117V47.4347H354.811V27.0117H352.885ZM352.885 47.4347C352.885 53.0218 352.014 56.3767 350.467 58.3378C348.972 60.2317 346.682 61.0178 343.251 61.0178V62.9445C346.949 62.9445 349.958 62.093 351.979 59.5314C353.948 57.037 354.811 53.1186 354.811 47.4347H352.885ZM343.251 61.0178C339.821 61.0178 337.53 60.2317 336.036 58.3378C334.488 56.3767 333.618 53.0218 333.618 47.4347H331.691C331.691 53.1186 332.555 57.037 334.523 59.5314C336.545 62.093 339.553 62.9445 343.251 62.9445V61.0178ZM333.618 47.4347V27.0117H331.691V47.4347H333.618ZM27.4353 113.475V112.511H26.6706L26.4971 113.256L27.4353 113.475ZM27.628 113.475L28.567 113.259L28.3953 112.511H27.628V113.475ZM34.0824 141.604V142.568H35.2919L35.0214 141.389L34.0824 141.604ZM20.8846 141.604L19.9463 141.386L19.6711 142.568H20.8846V141.604ZM14.7192 168V168.963H15.4665L15.6523 168.239L14.7192 168ZM18.4762 153.357V152.394H17.7288L17.5431 153.118L18.4762 153.357ZM36.8761 153.357L37.8149 153.141L37.6429 152.394H36.8761V153.357ZM40.2479 168L39.3091 168.216L39.4811 168.963H40.2479V168ZM52.964 168V168.963H54.1871L53.9006 167.774L52.964 168ZM36.2018 98.4464L37.1383 98.2206L36.9606 97.483H36.2018V98.4464ZM19.1506 98.4464V97.483H18.3969L18.2155 98.2145L19.1506 98.4464ZM1.90665 168L0.971609 167.768L0.675301 168.963H1.90665V168ZM28.206 80.4318V79.4684H27.6775L27.3935 79.9142L28.206 80.4318ZM19.2469 94.4966L18.4344 93.9791L17.4911 95.46H19.2469V94.4966ZM28.9767 94.4966V95.46H29.3738L29.6556 95.1801L28.9767 94.4966ZM43.1379 80.4318L43.8168 81.1153L45.4749 79.4684H43.1379V80.4318ZM27.4353 114.438H27.628V112.511H27.4353V114.438ZM26.6891 113.69L33.1435 141.82L35.0214 141.389L28.567 113.259L26.6891 113.69ZM34.0824 140.641H20.8846V142.568H34.0824V140.641ZM21.8228 141.823L28.3736 113.693L26.4971 113.256L19.9463 141.386L21.8228 141.823ZM15.6523 168.239L19.4093 153.597L17.5431 153.118L13.786 167.761L15.6523 168.239ZM18.4762 154.32H36.8761V152.394H18.4762V154.32ZM35.9374 153.573L39.3091 168.216L41.1866 167.784L37.8149 153.141L35.9374 153.573ZM40.2479 168.963H52.964V167.037H40.2479V168.963ZM53.9006 167.774L37.1383 98.2206L35.2653 98.6721L52.0275 168.226L53.9006 167.774ZM36.2018 97.483H19.1506V99.4097H36.2018V97.483ZM18.2155 98.2145L0.971609 167.768L2.84169 168.232L20.0856 98.6782L18.2155 98.2145ZM1.90665 168.963H14.7192V167.037H1.90665V168.963ZM27.3935 79.9142L18.4344 93.9791L20.0594 95.0142L29.0185 80.9493L27.3935 79.9142ZM19.2469 95.46H28.9767V93.5333H19.2469V95.46ZM29.6556 95.1801L43.8168 81.1153L42.459 79.7483L28.2978 93.8131L29.6556 95.1801ZM43.1379 79.4684H28.206V81.3951H43.1379V79.4684ZM105.627 168V168.963H107.079L106.514 167.625L105.627 168ZM92.5252 136.98L92.1857 136.079L91.2479 136.432L91.6378 137.355L92.5252 136.98ZM60.1568 98.4464V97.483H59.1934V98.4464H60.1568ZM60.1568 168H59.1934V168.963H60.1568V168ZM73.451 168V168.963H74.4143V168H73.451ZM73.451 139.678V138.714H72.4876V139.678H73.451ZM79.8091 139.678L80.701 139.314L80.4563 138.714H79.8091V139.678ZM91.3692 168L90.4773 168.364L90.7219 168.963H91.3692V168ZM73.451 109.429V108.465H72.4876V109.429H73.451ZM73.451 128.695H72.4876V129.659H73.451V128.695ZM106.514 167.625L93.4127 136.605L91.6378 137.355L104.739 168.375L106.514 167.625ZM92.8648 137.882C96.7707 136.411 99.5792 134.003 101.395 130.796C103.201 127.608 103.989 123.696 103.989 119.255H102.062C102.062 123.484 101.309 127.038 99.7189 129.846C98.1393 132.636 95.6975 134.756 92.1857 136.079L92.8648 137.882ZM103.989 119.255C103.989 112.517 102.027 107.023 97.8713 103.226C93.7302 99.4429 87.5601 97.483 79.4237 97.483V99.4097C87.2789 99.4097 92.9098 101.303 96.5718 104.649C100.219 107.981 102.062 112.891 102.062 119.255H103.989ZM79.4237 97.483H60.1568V99.4097H79.4237V97.483ZM59.1934 98.4464V168H61.1201V98.4464H59.1934ZM60.1568 168.963H73.451V167.037H60.1568V168.963ZM74.4143 168V139.678H72.4876V168H74.4143ZM73.451 140.641H79.8091V138.714H73.451V140.641ZM78.9171 140.042L90.4773 168.364L92.2611 167.636L80.701 139.314L78.9171 140.042ZM91.3692 168.963H105.627V167.037H91.3692V168.963ZM73.451 110.392H80.2907V108.465H73.451V110.392ZM80.2907 110.392C83.0845 110.392 85.1639 111.079 86.5466 112.41C87.9225 113.735 88.7682 115.853 88.7682 119.062H90.6949C90.6949 115.528 89.7584 112.828 87.883 111.023C86.0144 109.223 83.3733 108.465 80.2907 108.465V110.392ZM88.7682 119.062C88.7682 122.271 87.9225 124.389 86.5466 125.714C85.1639 127.045 83.0845 127.732 80.2907 127.732V129.659C83.3733 129.659 86.0144 128.901 87.883 127.101C89.7584 125.295 90.6949 122.596 90.6949 119.062H88.7682ZM80.2907 127.732H73.451V129.659H80.2907V127.732ZM74.4143 128.695V109.429H72.4876V128.695H74.4143ZM126.981 168L126.047 168.239L126.233 168.963H126.981V168ZM142.105 168V168.963H142.854L143.039 168.238L142.105 168ZM159.831 98.4464L160.764 98.6842L161.07 97.483H159.831V98.4464ZM146.826 98.4464V97.483H146.069L145.89 98.2178L146.826 98.4464ZM134.687 148.155V149.118H135.444L135.623 148.384L134.687 148.155ZM134.495 148.155L133.559 148.385L133.74 149.118H134.495V148.155ZM122.26 98.4464L123.196 98.2161L123.015 97.483H122.26V98.4464ZM109.159 98.4464V97.483H107.917L108.226 98.6855L109.159 98.4464ZM126.981 168.963H142.105V167.037H126.981V168.963ZM143.039 168.238L160.764 98.6842L158.897 98.2085L141.172 167.762L143.039 168.238ZM159.831 97.483H146.826V99.4097H159.831V97.483ZM145.89 98.2178L133.752 147.927L135.623 148.384L147.761 98.6749L145.89 98.2178ZM134.687 147.192H134.495V149.118H134.687V147.192ZM135.43 147.925L123.196 98.2161L121.325 98.6766L133.559 148.385L135.43 147.925ZM122.26 97.483H109.159V99.4097H122.26V97.483ZM108.226 98.6855L126.047 168.239L127.914 167.761L110.092 98.2072L108.226 98.6855ZM165.097 145.65C165.097 154.387 167.406 160.509 171.538 164.436C175.66 168.353 181.432 169.927 188.025 169.927V168C181.708 168 176.498 166.491 172.865 163.039C169.242 159.596 167.024 154.062 167.024 145.65H165.097ZM188.025 169.927C194.617 169.927 200.389 168.353 204.511 164.436C208.643 160.509 210.952 154.387 210.952 145.65H209.025C209.025 154.062 206.807 159.596 203.184 163.039C199.551 166.491 194.341 168 188.025 168V169.927ZM210.952 145.65V120.796H209.025V145.65H210.952ZM210.952 120.796C210.952 112.06 208.643 105.937 204.511 102.011C200.389 98.0931 194.617 96.5197 188.025 96.5197V98.4464C194.341 98.4464 199.551 99.9556 203.184 103.407C206.807 106.851 209.025 112.385 209.025 120.796H210.952ZM188.025 96.5197C181.432 96.5197 175.66 98.0931 171.538 102.011C167.406 105.937 165.097 112.06 165.097 120.796H167.024C167.024 112.385 169.242 106.851 172.865 103.407C176.498 99.9556 181.708 98.4464 188.025 98.4464V96.5197ZM165.097 120.796V145.65H167.024V120.796H165.097ZM180.318 119.062C180.318 115.322 181.14 113.174 182.381 111.943C183.62 110.713 185.476 110.199 188.025 110.199V108.272C185.274 108.272 182.795 108.818 181.024 110.575C179.255 112.33 178.391 115.096 178.391 119.062H180.318ZM188.025 110.199C190.573 110.199 192.429 110.713 193.668 111.943C194.909 113.174 195.731 115.322 195.731 119.062H197.658C197.658 115.096 196.794 112.33 195.025 110.575C193.254 108.818 190.775 108.272 188.025 108.272V110.199ZM195.731 119.062V147.384H197.658V119.062H195.731ZM195.731 147.384C195.731 151.125 194.909 153.272 193.668 154.504C192.429 155.733 190.573 156.247 188.025 156.247V158.174C190.775 158.174 193.254 157.628 195.025 155.871C196.794 154.116 197.658 151.351 197.658 147.384H195.731ZM188.025 156.247C185.476 156.247 183.62 155.733 182.381 154.504C181.14 153.272 180.318 151.125 180.318 147.384H178.391C178.391 151.351 179.255 154.116 181.024 155.871C182.795 157.628 185.274 158.174 188.025 158.174V156.247ZM180.318 147.384V119.062H178.391V147.384H180.318ZM266.216 168V168.963H267.669L267.103 167.625L266.216 168ZM253.114 136.98L252.775 136.079L251.837 136.432L252.227 137.355L253.114 136.98ZM220.746 98.4464V97.483H219.783V98.4464H220.746ZM220.746 168H219.783V168.963H220.746V168ZM234.04 168V168.963H235.003V168H234.04ZM234.04 139.678V138.714H233.077V139.678H234.04ZM240.398 139.678L241.29 139.314L241.046 138.714H240.398V139.678ZM251.958 168L251.066 168.364L251.311 168.963H251.958V168ZM234.04 109.429V108.465H233.077V109.429H234.04ZM234.04 128.695H233.077V129.659H234.04V128.695ZM267.103 167.625L254.002 136.605L252.227 137.355L265.328 168.375L267.103 167.625ZM253.454 137.882C257.36 136.411 260.168 134.003 261.985 130.796C263.79 127.608 264.578 123.696 264.578 119.255H262.652C262.652 123.484 261.899 127.038 260.308 129.846C258.728 132.636 256.287 134.756 252.775 136.079L253.454 137.882ZM264.578 119.255C264.578 112.517 262.616 107.023 258.46 103.226C254.319 99.4429 248.149 97.483 240.013 97.483V99.4097C247.868 99.4097 253.499 101.303 257.161 104.649C260.808 107.981 262.652 112.891 262.652 119.255H264.578ZM240.013 97.483H220.746V99.4097H240.013V97.483ZM219.783 98.4464V168H221.709V98.4464H219.783ZM220.746 168.963H234.04V167.037H220.746V168.963ZM235.003 168V139.678H233.077V168H235.003ZM234.04 140.641H240.398V138.714H234.04V140.641ZM239.506 140.042L251.066 168.364L252.85 167.636L241.29 139.314L239.506 140.042ZM251.958 168.963H266.216V167.037H251.958V168.963ZM234.04 110.392H240.88V108.465H234.04V110.392ZM240.88 110.392C243.674 110.392 245.753 111.079 247.136 112.41C248.512 113.735 249.357 115.853 249.357 119.062H251.284C251.284 115.528 250.348 112.828 248.472 111.023C246.604 109.223 243.962 108.465 240.88 108.465V110.392ZM249.357 119.062C249.357 122.271 248.512 124.389 247.136 125.714C245.753 127.045 243.674 127.732 240.88 127.732V129.659C243.962 129.659 246.604 128.901 248.472 127.101C250.348 125.295 251.284 122.596 251.284 119.062H249.357ZM240.88 127.732H234.04V129.659H240.88V127.732ZM235.003 128.695V109.429H233.077V128.695H235.003ZM311.654 168V168.963H312.617V168H311.654ZM311.654 156.247H312.617V155.284H311.654V156.247ZM287.57 156.247H286.607V157.211H287.57V156.247ZM287.57 137.944V136.98H286.607V137.944H287.57ZM305.199 137.944V138.907H306.162V137.944H305.199ZM305.199 126.191H306.162V125.227H305.199V126.191ZM287.57 126.191H286.607V127.154H287.57V126.191ZM287.57 110.199V109.236H286.607V110.199H287.57ZM310.69 110.199V111.163H311.654V110.199H310.69ZM310.69 98.4464H311.654V97.483H310.69V98.4464ZM274.276 98.4464V97.483H273.312V98.4464H274.276ZM274.276 168H273.312V168.963H274.276V168ZM312.617 168V156.247H310.69V168H312.617ZM311.654 155.284H287.57V157.211H311.654V155.284ZM288.533 156.247V137.944H286.607V156.247H288.533ZM287.57 138.907H305.199V136.98H287.57V138.907ZM306.162 137.944V126.191H304.236V137.944H306.162ZM305.199 125.227H287.57V127.154H305.199V125.227ZM288.533 126.191V110.199H286.607V126.191H288.533ZM287.57 111.163H310.69V109.236H287.57V111.163ZM311.654 110.199V98.4464H309.727V110.199H311.654ZM310.69 97.483H274.276V99.4097H310.69V97.483ZM273.312 98.4464V168H275.239V98.4464H273.312ZM274.276 168.963H311.654V167.037H274.276V168.963ZM363.771 114.342L364.039 115.267L364.918 115.012L364.708 114.121L363.771 114.342ZM332.655 146.614L333.602 146.439L333.423 145.465L332.454 145.672L332.655 146.614ZM319.553 149.407L319.352 148.465L318.367 148.675L318.621 149.65L319.553 149.407ZM351.825 117.81L350.913 118.118L351.208 118.992L352.094 118.735L351.825 117.81ZM364.708 114.121C363.513 109.041 361.034 104.63 357.271 101.488C353.503 98.341 348.508 96.5197 342.384 96.5197V98.4464C348.109 98.4464 352.652 100.141 356.036 102.967C359.427 105.798 361.716 109.816 362.833 114.562L364.708 114.121ZM342.384 96.5197C335.326 96.5197 329.832 98.4467 326.098 102.039C322.36 105.636 320.516 110.778 320.516 116.943H322.443C322.443 111.162 324.164 106.574 327.434 103.427C330.709 100.276 335.666 98.4464 342.384 98.4464V96.5197ZM320.516 116.943C320.516 127.289 328.466 132.448 335.848 136.546C339.617 138.639 343.219 140.444 345.923 142.548C348.6 144.631 350.187 146.851 350.187 149.696H352.114C352.114 145.991 349.993 143.274 347.106 141.028C344.247 138.803 340.431 136.887 336.783 134.862C329.329 130.723 322.443 126.056 322.443 116.943H320.516ZM350.187 149.696C350.187 152.068 349.381 153.879 348.121 155.097C346.855 156.321 345.06 157.018 342.962 157.018V158.945C345.489 158.945 347.788 158.1 349.46 156.482C351.139 154.859 352.114 152.527 352.114 149.696H350.187ZM342.962 157.018C339.581 157.018 335.08 154.474 333.602 146.439L331.707 146.788C333.312 155.516 338.444 158.945 342.962 158.945V157.018ZM332.454 145.672L319.352 148.465L319.754 150.35L332.855 147.556L332.454 145.672ZM318.621 149.65C320.441 156.634 323.516 161.722 327.601 165.061C331.692 168.405 336.712 169.927 342.288 169.927V168C337.074 168 332.509 166.584 328.821 163.569C325.127 160.55 322.23 155.86 320.485 149.165L318.621 149.65ZM342.288 169.927C349.45 169.927 355.243 167.9 359.255 164.231C363.276 160.555 365.408 155.321 365.408 149.118H363.482C363.482 154.862 361.52 159.55 357.955 162.809C354.38 166.077 349.094 168 342.288 168V169.927ZM365.408 149.118C365.408 137.668 357.547 131.785 350.086 127.533C346.278 125.363 342.698 123.675 339.951 121.81C337.209 119.948 335.737 118.183 335.737 116.076H333.811C333.811 119.219 336.047 121.488 338.869 123.404C341.686 125.317 345.523 127.151 349.132 129.207C356.507 133.409 363.482 138.798 363.482 149.118H365.408ZM335.737 116.076C335.737 113.886 336.339 112.248 337.365 111.162C338.383 110.084 339.936 109.429 342.095 109.429V107.502C339.535 107.502 337.427 108.291 335.964 109.839C334.51 111.378 333.811 113.544 333.811 116.076H335.737ZM342.095 109.429C344.185 109.429 345.816 110.048 347.196 111.375C348.612 112.737 349.826 114.905 350.913 118.118L352.738 117.501C351.609 114.164 350.27 111.659 348.531 109.987C346.756 108.279 344.63 107.502 342.095 107.502V109.429ZM352.094 118.735L364.039 115.267L363.502 113.416L351.557 116.884L352.094 118.735Z" fill="#216937"/>
</svg>
