<svg width="568" height="47" viewBox="0 0 568 47" fill="none" xmlns="http://www.w3.org/2000/svg">
<path d="M30.36 27H30.86V26.5H30.36V27ZM25.2 27L24.7054 26.927L24.6208 27.5H25.2V27ZM26.28 19.68V19.18H25.8484L25.7854 19.607L26.28 19.68ZM32.16 19.68V20.18H32.66V19.68H32.16ZM32.16 14.04H32.66V13.54H32.16V14.04ZM27 14.04L26.5046 13.9727L26.4274 14.54H27V14.04ZM28.68 1.68L29.1754 1.74734L29.2526 1.18H28.68V1.68ZM22.92 1.68V1.18H22.4855L22.4249 1.6103L22.92 1.68ZM21.18 14.04V14.54H21.6145L21.6751 14.1097L21.18 14.04ZM15.24 14.04L14.7446 13.9727L14.6674 14.54H15.24V14.04ZM16.92 1.68L17.4154 1.74734L17.4926 1.18H16.92V1.68ZM11.16 1.68V1.18H10.7255L10.6649 1.6103L11.16 1.68ZM9.42 14.04V14.54H9.85454L9.91512 14.1097L9.42 14.04ZM3.06 14.04V13.54H2.56V14.04H3.06ZM3.06 19.68H2.56V20.18H3.06V19.68ZM8.7 19.68L9.19465 19.753L9.27918 19.18H8.7V19.68ZM7.62 27V27.5H8.05164L8.11465 27.073L7.62 27ZM1.2 27V26.5H0.7V27H1.2ZM1.2 32.64H0.7V33.14H1.2V32.64ZM6.84 32.64L7.33544 32.7073L7.41256 32.14H6.84V32.64ZM5.16 45L4.66456 44.9327L4.58744 45.5H5.16V45ZM10.92 45V45.5H11.3545L11.4151 45.0697L10.92 45ZM12.66 32.64V32.14H12.2255L12.1649 32.5703L12.66 32.64ZM18.6 32.64L19.0954 32.7073L19.1726 32.14H18.6V32.64ZM16.92 45L16.4246 44.9327L16.3474 45.5H16.92V45ZM22.68 45V45.5H23.1145L23.1751 45.0697L22.68 45ZM24.42 32.64V32.14H23.9855L23.9249 32.5703L24.42 32.64ZM30.36 32.64V33.14H30.86V32.64H30.36ZM20.46 19.68L20.9546 19.753L21.0392 19.18H20.46V19.68ZM19.38 27V27.5H19.8116L19.8746 27.073L19.38 27ZM13.44 27L12.9454 26.927L12.8608 27.5H13.44V27ZM14.52 19.68V19.18H14.0884L14.0254 19.607L14.52 19.68ZM30.36 26.5H25.2V27.5H30.36V26.5ZM25.6946 27.073L26.7746 19.753L25.7854 19.607L24.7054 26.927L25.6946 27.073ZM26.28 20.18H32.16V19.18H26.28V20.18ZM32.66 19.68V14.04H31.66V19.68H32.66ZM32.16 13.54H27V14.54H32.16V13.54ZM27.4954 14.1073L29.1754 1.74734L28.1846 1.61265L26.5046 13.9727L27.4954 14.1073ZM28.68 1.18H22.92V2.18H28.68V1.18ZM22.4249 1.6103L20.6849 13.9703L21.6751 14.1097L23.4151 1.7497L22.4249 1.6103ZM21.18 13.54H15.24V14.54H21.18V13.54ZM15.7354 14.1073L17.4154 1.74734L16.4246 1.61265L14.7446 13.9727L15.7354 14.1073ZM16.92 1.18H11.16V2.18H16.92V1.18ZM10.6649 1.6103L8.92488 13.9703L9.91512 14.1097L11.6551 1.7497L10.6649 1.6103ZM9.42 13.54H3.06V14.54H9.42V13.54ZM2.56 14.04V19.68H3.56V14.04H2.56ZM3.06 20.18H8.7V19.18H3.06V20.18ZM8.20536 19.607L7.12536 26.927L8.11465 27.073L9.19465 19.753L8.20536 19.607ZM7.62 26.5H1.2V27.5H7.62V26.5ZM0.7 27V32.64H1.7V27H0.7ZM1.2 33.14H6.84V32.14H1.2V33.14ZM6.34456 32.5727L4.66456 44.9327L5.65544 45.0673L7.33544 32.7073L6.34456 32.5727ZM5.16 45.5H10.92V44.5H5.16V45.5ZM11.4151 45.0697L13.1551 32.7097L12.1649 32.5703L10.4249 44.9303L11.4151 45.0697ZM12.66 33.14H18.6V32.14H12.66V33.14ZM18.1046 32.5727L16.4246 44.9327L17.4154 45.0673L19.0954 32.7073L18.1046 32.5727ZM16.92 45.5H22.68V44.5H16.92V45.5ZM23.1751 45.0697L24.9151 32.7097L23.9249 32.5703L22.1849 44.9303L23.1751 45.0697ZM24.42 33.14H30.36V32.14H24.42V33.14ZM30.86 32.64V27H29.86V32.64H30.86ZM19.9654 19.607L18.8854 26.927L19.8746 27.073L20.9546 19.753L19.9654 19.607ZM19.38 26.5H13.44V27.5H19.38V26.5ZM13.9346 27.073L15.0146 19.753L14.0254 19.607L12.9454 26.927L13.9346 27.073ZM14.52 20.18H20.46V19.18H14.52V20.18ZM45.0998 45V45.5H45.5998V45H45.0998ZM45.0998 17.04V16.54H44.5998V17.04H45.0998ZM45.2198 17.04L45.6753 16.8338L45.5423 16.54H45.2198V17.04ZM57.8798 45L57.4244 45.2062L57.5574 45.5H57.8798V45ZM65.7998 45V45.5H66.2998V45H65.7998ZM65.7998 1.68H66.2998V1.18H65.7998V1.68ZM58.2398 1.68V1.18H57.7398V1.68H58.2398ZM58.2398 27.36V27.86H58.7398V27.36H58.2398ZM58.1198 27.36L57.6636 27.5646L57.7961 27.86H58.1198V27.36ZM46.5998 1.68L47.056 1.47535L46.9235 1.18H46.5998V1.68ZM37.5398 1.68V1.18H37.0398V1.68H37.5398ZM37.5398 45H37.0398V45.5H37.5398V45ZM45.5998 45V17.04H44.5998V45H45.5998ZM45.0998 17.54H45.2198V16.54H45.0998V17.54ZM44.7644 17.2462L57.4244 45.2062L58.3353 44.7938L45.6753 16.8338L44.7644 17.2462ZM57.8798 45.5H65.7998V44.5H57.8798V45.5ZM66.2998 45V1.68H65.2998V45H66.2998ZM65.7998 1.18H58.2398V2.18H65.7998V1.18ZM57.7398 1.68V27.36H58.7398V1.68H57.7398ZM58.2398 26.86H58.1198V27.86H58.2398V26.86ZM58.576 27.1553L47.056 1.47535L46.1436 1.88465L57.6636 27.5646L58.576 27.1553ZM46.5998 1.18H37.5398V2.18H46.5998V1.18ZM37.0398 1.68V45H38.0398V1.68H37.0398ZM37.5398 45.5H45.0998V44.5H37.5398V45.5ZM86.6995 11.04V10.54H86.3026L86.2126 10.9266L86.6995 11.04ZM86.8195 11.04L87.3069 10.9282L87.2178 10.54H86.8195V11.04ZM90.8395 28.56V29.06H91.4672L91.3269 28.4482L90.8395 28.56ZM82.6195 28.56L82.1326 28.4466L81.9897 29.06H82.6195V28.56ZM78.7795 45V45.5H79.1674L79.2638 45.1243L78.7795 45ZM81.1195 35.88V35.38H80.7316L80.6352 35.7557L81.1195 35.88ZM92.5795 35.88L93.0668 35.7678L92.9775 35.38H92.5795V35.88ZM94.6795 45L94.1923 45.1122L94.2816 45.5H94.6795V45ZM102.6 45V45.5H103.234L103.086 44.8829L102.6 45ZM92.1595 1.68L92.6456 1.56285L92.5534 1.18H92.1595V1.68ZM81.5395 1.68V1.18H81.1484L81.0542 1.55968L81.5395 1.68ZM70.7995 45L70.3142 44.8797L70.1604 45.5H70.7995V45ZM86.6995 11.54H86.8195V10.54H86.6995V11.54ZM86.3322 11.1518L90.3522 28.6718L91.3269 28.4482L87.3069 10.9282L86.3322 11.1518ZM90.8395 28.06H82.6195V29.06H90.8395V28.06ZM83.1065 28.6734L87.1865 11.1534L86.2126 10.9266L82.1326 28.4466L83.1065 28.6734ZM79.2638 45.1243L81.6038 36.0043L80.6352 35.7557L78.2952 44.8757L79.2638 45.1243ZM81.1195 36.38H92.5795V35.38H81.1195V36.38ZM92.0923 35.9922L94.1923 45.1122L95.1668 44.8878L93.0668 35.7678L92.0923 35.9922ZM94.6795 45.5H102.6V44.5H94.6795V45.5ZM103.086 44.8829L92.6456 1.56285L91.6734 1.79714L102.113 45.1171L103.086 44.8829ZM92.1595 1.18H81.5395V2.18H92.1595V1.18ZM81.0542 1.55968L70.3142 44.8797L71.2848 45.1203L82.0248 1.80031L81.0542 1.55968ZM70.7995 45.5H78.7795V44.5H70.7995V45.5ZM101.278 1.68V1.18H100.778V1.68H101.278ZM101.278 9H100.778V9.5H101.278V9ZM110.938 9H111.438V8.5H110.938V9ZM110.938 45H110.438V45.5H110.938V45ZM119.218 45V45.5H119.718V45H119.218ZM119.218 9V8.5H118.718V9H119.218ZM128.878 9V9.5H129.378V9H128.878ZM128.878 1.68H129.378V1.18H128.878V1.68ZM100.778 1.68V9H101.778V1.68H100.778ZM101.278 9.5H110.938V8.5H101.278V9.5ZM110.438 9V45H111.438V9H110.438ZM110.938 45.5H119.218V44.5H110.938V45.5ZM119.718 45V9H118.718V45H119.718ZM119.218 9.5H128.878V8.5H119.218V9.5ZM129.378 9V1.68H128.378V9H129.378ZM128.878 1.18H101.278V2.18H128.878V1.18ZM134.278 1.68V1.18H133.778V1.68H134.278ZM162.538 1.68H163.038V1.18H162.538V1.68ZM154.258 1.68V1.18H153.758V1.68H154.258ZM142.558 1.68H143.058V1.18H142.558V1.68ZM133.778 1.68V32.04H134.778V1.68H133.778ZM133.778 32.04C133.778 36.9089 135.205 40.4525 137.8 42.7704C140.385 45.0792 144.048 46.1 148.378 46.1V45.1C144.188 45.1 140.802 44.1108 138.466 42.0246C136.141 39.9475 134.778 36.7111 134.778 32.04H133.778ZM148.378 46.1C152.708 46.1 156.386 45.0792 158.985 42.7714C161.595 40.4541 163.038 36.9105 163.038 32.04H162.038C162.038 36.7095 160.661 39.9459 158.321 42.0236C155.97 44.1108 152.568 45.1 148.378 45.1V46.1ZM163.038 32.04V1.68H162.038V32.04H163.038ZM162.538 1.18H154.258V2.18H162.538V1.18ZM153.758 1.68V31.98H154.758V1.68H153.758ZM153.758 31.98C153.758 33.9855 153.306 35.4162 152.457 36.345C151.615 37.2651 150.301 37.78 148.378 37.78V38.78C150.475 38.78 152.101 38.2149 153.195 37.02C154.28 35.8338 154.758 34.1145 154.758 31.98H153.758ZM148.378 37.78C146.455 37.78 145.158 37.2653 144.332 36.3479C143.496 35.42 143.058 33.9891 143.058 31.98H142.058C142.058 34.1109 142.52 35.83 143.589 37.0171C144.668 38.2147 146.281 38.78 148.378 38.78V37.78ZM143.058 31.98V1.68H142.058V31.98H143.058ZM142.558 1.18H134.278V2.18H142.558V1.18ZM198.798 45V45.5H199.552L199.258 44.8055L198.798 45ZM190.638 25.68L190.462 25.2121L189.975 25.3954L190.177 25.8745L190.638 25.68ZM170.478 1.68V1.18H169.978V1.68H170.478ZM170.478 45H169.978V45.5H170.478V45ZM178.758 45V45.5H179.258V45H178.758ZM178.758 27.36V26.86H178.258V27.36H178.758ZM182.718 27.36L183.181 27.1711L183.054 26.86H182.718V27.36ZM189.918 45L189.455 45.1889L189.582 45.5H189.918V45ZM178.758 8.52V8.02H178.258V8.52H178.758ZM178.758 20.52H178.258V21.02H178.758V20.52ZM199.258 44.8055L191.098 25.4855L190.177 25.8745L198.337 45.1945L199.258 44.8055ZM190.814 26.1479C193.226 25.2394 194.956 23.7548 196.075 21.7789C197.189 19.813 197.678 17.395 197.678 14.64H196.678C196.678 17.285 196.207 19.517 195.205 21.2861C194.209 23.0452 192.669 24.3806 190.462 25.2121L190.814 26.1479ZM197.678 14.64C197.678 10.4629 196.462 7.07133 193.9 4.73085C191.346 2.39726 187.531 1.18 182.478 1.18V2.18C187.385 2.18 190.92 3.36274 193.226 5.46914C195.524 7.56866 196.678 10.6571 196.678 14.64H197.678ZM182.478 1.18H170.478V2.18H182.478V1.18ZM169.978 1.68V45H170.978V1.68H169.978ZM170.478 45.5H178.758V44.5H170.478V45.5ZM179.258 45V27.36H178.258V45H179.258ZM178.758 27.86H182.718V26.86H178.758V27.86ZM182.255 27.5489L189.455 45.1889L190.381 44.8111L183.181 27.1711L182.255 27.5489ZM189.918 45.5H198.798V44.5H189.918V45.5ZM178.758 9.02H183.018V8.02H178.758V9.02ZM183.018 9.02C184.773 9.02 186.097 9.4516 186.983 10.3052C187.866 11.1553 188.398 12.5044 188.398 14.52H189.398C189.398 12.3356 188.819 10.6847 187.677 9.58484C186.539 8.4884 184.923 8.02 183.018 8.02V9.02ZM188.398 14.52C188.398 16.5356 187.866 17.8847 186.983 18.7348C186.097 19.5884 184.773 20.02 183.018 20.02V21.02C184.923 21.02 186.539 20.5516 187.677 19.4552C188.819 18.3553 189.398 16.7044 189.398 14.52H188.398ZM183.018 20.02H178.758V21.02H183.018V20.02ZM179.258 20.52V8.52H178.258V20.52H179.258ZM227.098 45V45.5H227.598V45H227.098ZM227.098 37.68H227.598V37.18H227.098V37.68ZM212.098 37.68H211.598V38.18H212.098V37.68ZM212.098 26.28V25.78H211.598V26.28H212.098ZM223.078 26.28V26.78H223.578V26.28H223.078ZM223.078 18.96H223.578V18.46H223.078V18.96ZM212.098 18.96H211.598V19.46H212.098V18.96ZM212.098 9V8.5H211.598V9H212.098ZM226.498 9V9.5H226.998V9H226.498ZM226.498 1.68H226.998V1.18H226.498V1.68ZM203.818 1.68V1.18H203.318V1.68H203.818ZM203.818 45H203.318V45.5H203.818V45ZM227.598 45V37.68H226.598V45H227.598ZM227.098 37.18H212.098V38.18H227.098V37.18ZM212.598 37.68V26.28H211.598V37.68H212.598ZM212.098 26.78H223.078V25.78H212.098V26.78ZM223.578 26.28V18.96H222.578V26.28H223.578ZM223.078 18.46H212.098V19.46H223.078V18.46ZM212.598 18.96V9H211.598V18.96H212.598ZM212.098 9.5H226.498V8.5H212.098V9.5ZM226.998 9V1.68H225.998V9H226.998ZM226.498 1.18H203.818V2.18H226.498V1.18ZM203.318 1.68V45H204.318V1.68H203.318ZM203.818 45.5H227.098V44.5H203.818V45.5ZM242.578 45V45.5H243.078V45H242.578ZM242.578 1.68H243.078V1.18H242.578V1.68ZM234.298 1.68V1.18H233.798V1.68H234.298ZM234.298 45H233.798V45.5H234.298V45ZM243.078 45V1.68H242.078V45H243.078ZM242.578 1.18H234.298V2.18H242.578V1.18ZM233.798 1.68V45H234.798V1.68H233.798ZM234.298 45.5H242.578V44.5H234.298V45.5ZM276.257 11.58L276.396 12.0602L276.852 11.9278L276.744 11.4655L276.257 11.58ZM256.877 31.68L257.369 31.5896L257.276 31.0837L256.773 31.191L256.877 31.68ZM248.717 33.42L248.613 32.931L248.101 33.04L248.233 33.5461L248.717 33.42ZM268.817 13.74L268.343 13.9002L268.497 14.3536L268.956 14.2202L268.817 13.74ZM276.744 11.4655C276.003 8.31864 274.469 5.59189 272.145 3.6512C269.818 1.70783 266.73 0.579997 262.937 0.579997V1.58C266.523 1.58 269.376 2.64216 271.504 4.41879C273.635 6.1981 275.071 8.72135 275.77 11.6945L276.744 11.4655ZM262.937 0.579997C258.559 0.579997 255.164 1.77517 252.863 3.9897C250.559 6.20645 249.417 9.38032 249.417 13.2H250.417C250.417 9.57967 251.495 6.69354 253.556 4.71029C255.62 2.72482 258.735 1.58 262.937 1.58V0.579997ZM249.417 13.2C249.417 19.5799 254.313 22.7676 258.914 25.3221C261.256 26.6221 263.51 27.7521 265.202 29.069C266.88 30.3748 267.897 31.7832 267.897 33.6H268.897C268.897 31.3368 267.603 29.6702 265.816 28.2798C264.044 26.9004 261.678 25.7129 259.4 24.4479C254.761 21.8724 250.417 18.9401 250.417 13.2H249.417ZM267.897 33.6C267.897 35.1009 267.386 36.2556 266.579 37.0356C265.77 37.8185 264.625 38.26 263.297 38.26V39.26C264.848 39.26 266.254 38.7415 267.274 37.7544C268.298 36.7644 268.897 35.3391 268.897 33.6H267.897ZM263.297 38.26C261.132 38.26 258.296 36.6297 257.369 31.5896L256.385 31.7704C257.378 37.1703 260.542 39.26 263.297 39.26V38.26ZM256.773 31.191L248.613 32.931L248.821 33.909L256.981 32.169L256.773 31.191ZM248.233 33.5461C249.363 37.881 251.269 41.029 253.793 43.0921C256.32 45.1576 259.423 46.1 262.877 46.1V45.1C259.611 45.1 256.744 44.2124 254.426 42.3179C252.105 40.421 250.291 37.479 249.201 33.2939L248.233 33.5461ZM262.877 46.1C267.319 46.1 270.901 44.8429 273.377 42.579C275.858 40.3108 277.177 37.0791 277.177 33.24H276.177C276.177 36.8409 274.946 39.7892 272.702 41.841C270.453 43.8971 267.135 45.1 262.877 45.1V46.1ZM277.177 33.24C277.177 26.1668 272.327 22.5284 267.684 19.8831C265.323 18.5373 263.079 17.4783 261.365 16.3142C259.653 15.1517 258.697 14.0261 258.697 12.66H257.697C257.697 14.5638 259.05 15.9508 260.803 17.1414C262.554 18.3304 264.931 19.4652 267.189 20.7519C271.787 23.3716 276.177 26.7532 276.177 33.24H277.177ZM258.697 12.66C258.697 11.2788 259.077 10.2307 259.738 9.53091C260.395 8.83534 261.391 8.42 262.757 8.42V7.42C261.183 7.42 259.899 7.90466 259.011 8.84409C258.127 9.7793 257.697 11.1012 257.697 12.66H258.697ZM262.757 8.42C264.082 8.42 265.123 8.81413 266.003 9.66036C266.901 10.5248 267.664 11.8923 268.343 13.9002L269.291 13.5798C268.59 11.5077 267.762 9.96523 266.696 8.93963C265.611 7.89586 264.312 7.42 262.757 7.42V8.42ZM268.956 14.2202L276.396 12.0602L276.117 11.0998L268.677 13.2598L268.956 14.2202ZM281.337 1.68V1.18H280.837V1.68H281.337ZM281.337 9H280.837V9.5H281.337V9ZM290.997 9H291.497V8.5H290.997V9ZM290.997 45H290.497V45.5H290.997V45ZM299.277 45V45.5H299.777V45H299.277ZM299.277 9V8.5H298.777V9H299.277ZM308.937 9V9.5H309.437V9H308.937ZM308.937 1.68H309.437V1.18H308.937V1.68ZM280.837 1.68V9H281.837V1.68H280.837ZM281.337 9.5H290.997V8.5H281.337V9.5ZM290.497 9V45H291.497V9H290.497ZM290.997 45.5H299.277V44.5H290.997V45.5ZM299.777 45V9H298.777V45H299.777ZM299.277 9.5H308.937V8.5H299.277V9.5ZM309.437 9V1.68H308.437V9H309.437ZM308.937 1.18H281.337V2.18H308.937V1.18ZM322.617 45V45.5H323.117V45H322.617ZM322.617 26.28V25.78H322.117V26.28H322.617ZM334.317 26.28H334.817V25.78H334.317V26.28ZM334.317 45H333.817V45.5H334.317V45ZM342.597 45V45.5H343.097V45H342.597ZM342.597 1.68H343.097V1.18H342.597V1.68ZM334.317 1.68V1.18H333.817V1.68H334.317ZM334.317 18.96V19.46H334.817V18.96H334.317ZM322.617 18.96H322.117V19.46H322.617V18.96ZM322.617 1.68H323.117V1.18H322.617V1.68ZM314.337 1.68V1.18H313.837V1.68H314.337ZM314.337 45H313.837V45.5H314.337V45ZM323.117 45V26.28H322.117V45H323.117ZM322.617 26.78H334.317V25.78H322.617V26.78ZM333.817 26.28V45H334.817V26.28H333.817ZM334.317 45.5H342.597V44.5H334.317V45.5ZM343.097 45V1.68H342.097V45H343.097ZM342.597 1.18H334.317V2.18H342.597V1.18ZM333.817 1.68V18.96H334.817V1.68H333.817ZM334.317 18.46H322.617V19.46H334.317V18.46ZM323.117 18.96V1.68H322.117V18.96H323.117ZM322.617 1.18H314.337V2.18H322.617V1.18ZM313.837 1.68V45H314.837V1.68H313.837ZM314.337 45.5H322.617V44.5H314.337V45.5ZM373.816 45V45.5H374.316V45H373.816ZM373.816 37.68H374.316V37.18H373.816V37.68ZM358.816 37.68H358.316V38.18H358.816V37.68ZM358.816 26.28V25.78H358.316V26.28H358.816ZM369.796 26.28V26.78H370.296V26.28H369.796ZM369.796 18.96H370.296V18.46H369.796V18.96ZM358.816 18.96H358.316V19.46H358.816V18.96ZM358.816 9V8.5H358.316V9H358.816ZM373.216 9V9.5H373.716V9H373.216ZM373.216 1.68H373.716V1.18H373.216V1.68ZM350.536 1.68V1.18H350.036V1.68H350.536ZM350.536 45H350.036V45.5H350.536V45ZM374.316 45V37.68H373.316V45H374.316ZM373.816 37.18H358.816V38.18H373.816V37.18ZM359.316 37.68V26.28H358.316V37.68H359.316ZM358.816 26.78H369.796V25.78H358.816V26.78ZM370.296 26.28V18.96H369.296V26.28H370.296ZM369.796 18.46H358.816V19.46H369.796V18.46ZM359.316 18.96V9H358.316V18.96H359.316ZM358.816 9.5H373.216V8.5H358.816V9.5ZM373.716 9V1.68H372.716V9H373.716ZM373.216 1.18H350.536V2.18H373.216V1.18ZM350.036 1.68V45H351.036V1.68H350.036ZM350.536 45.5H373.816V44.5H350.536V45.5ZM388.816 45V45.5H389.316V45H388.816ZM388.816 26.28V25.78H388.316V26.28H388.816ZM399.256 26.28V26.78H399.756V26.28H399.256ZM399.256 18.96H399.756V18.46H399.256V18.96ZM388.816 18.96H388.316V19.46H388.816V18.96ZM388.816 9V8.5H388.316V9H388.816ZM402.136 9V9.5H402.636V9H402.136ZM402.136 1.68H402.636V1.18H402.136V1.68ZM380.536 1.68V1.18H380.036V1.68H380.536ZM380.536 45H380.036V45.5H380.536V45ZM389.316 45V26.28H388.316V45H389.316ZM388.816 26.78H399.256V25.78H388.816V26.78ZM399.756 26.28V18.96H398.756V26.28H399.756ZM399.256 18.46H388.816V19.46H399.256V18.46ZM389.316 18.96V9H388.316V18.96H389.316ZM388.816 9.5H402.136V8.5H388.816V9.5ZM402.636 9V1.68H401.636V9H402.636ZM402.136 1.18H380.536V2.18H402.136V1.18ZM380.036 1.68V45H381.036V1.68H380.036ZM380.536 45.5H388.816V44.5H380.536V45.5ZM407.677 1.68V1.18H407.177V1.68H407.677ZM435.937 1.68H436.437V1.18H435.937V1.68ZM427.657 1.68V1.18H427.157V1.68H427.657ZM415.957 1.68H416.457V1.18H415.957V1.68ZM407.177 1.68V32.04H408.177V1.68H407.177ZM407.177 32.04C407.177 36.9089 408.604 40.4525 411.198 42.7704C413.783 45.0792 417.447 46.1 421.777 46.1V45.1C417.587 45.1 414.2 44.1108 411.865 42.0246C409.539 39.9475 408.177 36.7111 408.177 32.04H407.177ZM421.777 46.1C426.107 46.1 429.784 45.0792 432.384 42.7714C434.993 40.4541 436.437 36.9105 436.437 32.04H435.437C435.437 36.7095 434.06 39.9459 431.72 42.0236C429.369 44.1108 425.966 45.1 421.777 45.1V46.1ZM436.437 32.04V1.68H435.437V32.04H436.437ZM435.937 1.18H427.657V2.18H435.937V1.18ZM427.157 1.68V31.98H428.157V1.68H427.157ZM427.157 31.98C427.157 33.9855 426.705 35.4162 425.855 36.345C425.013 37.2651 423.7 37.78 421.777 37.78V38.78C423.873 38.78 425.5 38.2149 426.593 37.02C427.678 35.8338 428.157 34.1145 428.157 31.98H427.157ZM421.777 37.78C419.853 37.78 418.557 37.2653 417.731 36.3479C416.895 35.42 416.457 33.9891 416.457 31.98H415.457C415.457 34.1109 415.918 35.83 416.988 37.0171C418.066 38.2147 419.68 38.78 421.777 38.78V37.78ZM416.457 31.98V1.68H415.457V31.98H416.457ZM415.957 1.18H407.677V2.18H415.957V1.18ZM441.356 1.68V1.18H440.856V1.68H441.356ZM441.356 9H440.856V9.5H441.356V9ZM451.016 9H451.516V8.5H451.016V9ZM451.016 45H450.516V45.5H451.016V45ZM459.296 45V45.5H459.796V45H459.296ZM459.296 9V8.5H458.796V9H459.296ZM468.956 9V9.5H469.456V9H468.956ZM468.956 1.68H469.456V1.18H468.956V1.68ZM440.856 1.68V9H441.856V1.68H440.856ZM441.356 9.5H451.016V8.5H441.356V9.5ZM450.516 9V45H451.516V9H450.516ZM451.016 45.5H459.296V44.5H451.016V45.5ZM459.796 45V9H458.796V45H459.796ZM459.296 9.5H468.956V8.5H459.296V9.5ZM469.456 9V1.68H468.456V9H469.456ZM468.956 1.18H441.356V2.18H468.956V1.18ZM474.356 1.68V1.18H473.856V1.68H474.356ZM502.616 1.68H503.116V1.18H502.616V1.68ZM494.336 1.68V1.18H493.836V1.68H494.336ZM482.636 1.68H483.136V1.18H482.636V1.68ZM473.856 1.68V32.04H474.856V1.68H473.856ZM473.856 32.04C473.856 36.9089 475.283 40.4525 477.878 42.7704C480.463 45.0792 484.126 46.1 488.456 46.1V45.1C484.266 45.1 480.88 44.1108 478.544 42.0246C476.219 39.9475 474.856 36.7111 474.856 32.04H473.856ZM488.456 46.1C492.786 46.1 496.464 45.0792 499.063 42.7714C501.673 40.4541 503.116 36.9105 503.116 32.04H502.116C502.116 36.7095 500.739 39.9459 498.399 42.0236C496.049 44.1108 492.646 45.1 488.456 45.1V46.1ZM503.116 32.04V1.68H502.116V32.04H503.116ZM502.616 1.18H494.336V2.18H502.616V1.18ZM493.836 1.68V31.98H494.836V1.68H493.836ZM493.836 31.98C493.836 33.9855 493.385 35.4162 492.535 36.345C491.693 37.2651 490.379 37.78 488.456 37.78V38.78C490.553 38.78 492.18 38.2149 493.273 37.02C494.358 35.8338 494.836 34.1145 494.836 31.98H493.836ZM488.456 37.78C486.533 37.78 485.237 37.2653 484.41 36.3479C483.575 35.42 483.136 33.9891 483.136 31.98H482.136C482.136 34.1109 482.598 35.83 483.667 37.0171C484.746 38.2147 486.359 38.78 488.456 38.78V37.78ZM483.136 31.98V1.68H482.136V31.98H483.136ZM482.636 1.18H474.356V2.18H482.636V1.18ZM538.876 45V45.5H539.63L539.337 44.8055L538.876 45ZM530.716 25.68L530.54 25.2121L530.053 25.3954L530.255 25.8745L530.716 25.68ZM510.556 1.68V1.18H510.056V1.68H510.556ZM510.556 45H510.056V45.5H510.556V45ZM518.836 45V45.5H519.336V45H518.836ZM518.836 27.36V26.86H518.336V27.36H518.836ZM522.796 27.36L523.259 27.1711L523.132 26.86H522.796V27.36ZM529.996 45L529.533 45.1889L529.66 45.5H529.996V45ZM518.836 8.52V8.02H518.336V8.52H518.836ZM518.836 20.52H518.336V21.02H518.836V20.52ZM539.337 44.8055L531.177 25.4855L530.255 25.8745L538.415 45.1945L539.337 44.8055ZM530.892 26.1479C533.304 25.2394 535.035 23.7548 536.154 21.7789C537.267 19.813 537.756 17.395 537.756 14.64H536.756C536.756 17.285 536.285 19.517 535.283 21.2861C534.287 23.0452 532.747 24.3806 530.54 25.2121L530.892 26.1479ZM537.756 14.64C537.756 10.4629 536.54 7.07133 533.978 4.73085C531.424 2.39726 527.609 1.18 522.556 1.18V2.18C527.463 2.18 530.998 3.36274 533.304 5.46914C535.602 7.56866 536.756 10.6571 536.756 14.64H537.756ZM522.556 1.18H510.556V2.18H522.556V1.18ZM510.056 1.68V45H511.056V1.68H510.056ZM510.556 45.5H518.836V44.5H510.556V45.5ZM519.336 45V27.36H518.336V45H519.336ZM518.836 27.86H522.796V26.86H518.836V27.86ZM522.333 27.5489L529.533 45.1889L530.459 44.8111L523.259 27.1711L522.333 27.5489ZM529.996 45.5H538.876V44.5H529.996V45.5ZM518.836 9.02H523.096V8.02H518.836V9.02ZM523.096 9.02C524.851 9.02 526.175 9.4516 527.062 10.3052C527.945 11.1553 528.476 12.5044 528.476 14.52H529.476C529.476 12.3356 528.897 10.6847 527.755 9.58484C526.617 8.4884 525.001 8.02 523.096 8.02V9.02ZM528.476 14.52C528.476 16.5356 527.945 17.8847 527.062 18.7348C526.175 19.5884 524.851 20.02 523.096 20.02V21.02C525.001 21.02 526.617 20.5516 527.755 19.4552C528.897 18.3553 529.476 16.7044 529.476 14.52H528.476ZM523.096 20.02H518.836V21.02H523.096V20.02ZM519.336 20.52V8.52H518.336V20.52H519.336ZM567.176 45V45.5H567.676V45H567.176ZM567.176 37.68H567.676V37.18H567.176V37.68ZM552.176 37.68H551.676V38.18H552.176V37.68ZM552.176 26.28V25.78H551.676V26.28H552.176ZM563.156 26.28V26.78H563.656V26.28H563.156ZM563.156 18.96H563.656V18.46H563.156V18.96ZM552.176 18.96H551.676V19.46H552.176V18.96ZM552.176 9V8.5H551.676V9H552.176ZM566.576 9V9.5H567.076V9H566.576ZM566.576 1.68H567.076V1.18H566.576V1.68ZM543.896 1.68V1.18H543.396V1.68H543.896ZM543.896 45H543.396V45.5H543.896V45ZM567.676 45V37.68H566.676V45H567.676ZM567.176 37.18H552.176V38.18H567.176V37.18ZM552.676 37.68V26.28H551.676V37.68H552.676ZM552.176 26.78H563.156V25.78H552.176V26.78ZM563.656 26.28V18.96H562.656V26.28H563.656ZM563.156 18.46H552.176V19.46H563.156V18.46ZM552.676 18.96V9H551.676V18.96H552.676ZM552.176 9.5H566.576V8.5H552.176V9.5ZM567.076 9V1.68H566.076V9H567.076ZM566.576 1.18H543.896V2.18H566.576V1.18ZM543.396 1.68V45H544.396V1.68H543.396ZM543.896 45.5H567.176V44.5H543.896V45.5Z" fill="#216937"/>
</svg>
